<svg xmlns="http://www.w3.org/2000/svg" xmlns:xlink="http://www.w3.org/1999/xlink" height="345.6pt" version="1.1" viewBox="0 0 460.8 345.6" width="460.8pt">
 <metadata>
  <rdf:RDF xmlns:cc="http://creativecommons.org/ns#" xmlns:dc="http://purl.org/dc/elements/1.1/" xmlns:rdf="http://www.w3.org/1999/02/22-rdf-syntax-ns#">
   <cc:Work>
    <dc:type rdf:resource="http://purl.org/dc/dcmitype/StillImage"/>
    <dc:date>2020-08-09T11:20:28.307658</dc:date>
    <dc:format>image/svg+xml</dc:format>
    <dc:creator>
     <cc:Agent>
      <dc:title>Matplotlib v3.3.0, https://matplotlib.org/</dc:title>
     </cc:Agent>
    </dc:creator>
   </cc:Work>
  </rdf:RDF>
 </metadata>
 <defs>
  <style type="text/css">*{stroke-linecap:butt;stroke-linejoin:round;}</style>
 </defs>
 <g id="figure_1">
  <g id="patch_1">
   <path d="M 0 345.6  L 460.8 345.6  L 460.8 0  L 0 0  z " style="fill:#ffffff;"/>
  </g>
  <g id="axes_1">
   <g id="patch_2">
    <path clip-path="url(#pe30c2de018)" d="M 79.92 252.648  L 414.72 252.648  L 414.72 259.344  L 79.92 259.344  z " style="fill:url(#h2c6c35bd00);stroke:#ff0000;stroke-linejoin:miter;stroke-width:2;"/>
   </g>
   <g id="line2d_1">
    <path clip-path="url(#pe30c2de018)" d="M 191.52 230.328  L 191.397729 227.994925  L 191.032254 225.687411  L 190.427581 223.430741  L 189.590335 221.249638  L 188.529687 219.168  L 187.257259 217.208633  L 185.786993 215.393005  L 184.134995 213.741007  L 182.319367 212.270741  L 180.36 210.998313  L 178.278362 209.937665  L 176.097259 209.100419  L 173.840589 208.495746  L 171.533075 208.130271  L 169.2 208.008  L 166.866925 208.130271  L 164.559411 208.495746  L 162.302741 209.100419  L 160.121638 209.937665  L 158.04 210.998313  L 156.080633 212.270741  L 154.265005 213.741007  L 152.613007 215.393005  L 151.142741 217.208633  L 149.870313 219.168  L 148.809665 221.249638  L 147.972419 223.430741  L 147.367746 225.687411  L 147.002271 227.994925  L 146.88 230.328  L 147.002271 232.661075  L 147.367746 234.968589  L 147.972419 237.225259  L 148.809665 239.406362  L 149.870313 241.488  L 151.142741 243.447367  L 152.613007 245.262995  L 154.265005 246.914993  L 156.080633 248.385259  L 158.04 249.657687  L 160.121638 250.718335  L 162.302741 251.555581  L 164.559411 252.160254  L 166.866925 252.525729  L 169.2 252.648  L 171.533075 252.525729  L 173.840589 252.160254  L 176.097259 251.555581  L 178.278362 250.718335  L 180.36 249.657687  L 182.319367 248.385259  L 184.134995 246.914993  L 185.786993 245.262995  L 187.257259 243.447367  L 188.529687 241.488  L 189.590335 239.406362  L 190.427581 237.225259  L 191.032254 234.968589  L 191.397729 232.661075  L 191.52 230.328  L 191.52 230.328  " style="fill:none;stroke:#ff0000;stroke-linecap:square;stroke-width:2;"/>
   </g>
   <g id="line2d_2">
    <path clip-path="url(#pe30c2de018)" d="M 169.2 252.648  L 169.2 208.008  " style="fill:none;stroke:#ff0000;stroke-linecap:square;stroke-width:2;"/>
   </g>
   <g id="line2d_3">
    <path clip-path="url(#pe30c2de018)" d="M 146.88 230.328  L 191.52 230.328  " style="fill:none;stroke:#ff0000;stroke-linecap:square;stroke-width:2;"/>
   </g>
   <g id="line2d_4">
    <path clip-path="url(#pe30c2de018)" d="M 280.8 230.328  L 280.677729 227.994925  L 280.312254 225.687411  L 279.707581 223.430741  L 278.870335 221.249638  L 277.809687 219.168  L 276.537259 217.208633  L 275.066993 215.393005  L 273.414995 213.741007  L 271.599367 212.270741  L 269.64 210.998313  L 267.558362 209.937665  L 265.377259 209.100419  L 263.120589 208.495746  L 260.813075 208.130271  L 258.48 208.008  L 256.146925 208.130271  L 253.839411 208.495746  L 251.582741 209.100419  L 249.401638 209.937665  L 247.32 210.998313  L 245.360633 212.270741  L 243.545005 213.741007  L 241.893007 215.393005  L 240.422741 217.208633  L 239.150313 219.168  L 238.089665 221.249638  L 237.252419 223.430741  L 236.647746 225.687411  L 236.282271 227.994925  L 236.16 230.328  L 236.282271 232.661075  L 236.647746 234.968589  L 237.252419 237.225259  L 238.089665 239.406362  L 239.150313 241.488  L 240.422741 243.447367  L 241.893007 245.262995  L 243.545005 246.914993  L 245.360633 248.385259  L 247.32 249.657687  L 249.401638 250.718335  L 251.582741 251.555581  L 253.839411 252.160254  L 256.146925 252.525729  L 258.48 252.648  L 260.813075 252.525729  L 263.120589 252.160254  L 265.377259 251.555581  L 267.558362 250.718335  L 269.64 249.657687  L 271.599367 248.385259  L 273.414995 246.914993  L 275.066993 245.262995  L 276.537259 243.447367  L 277.809687 241.488  L 278.870335 239.406362  L 279.707581 237.225259  L 280.312254 234.968589  L 280.677729 232.661075  L 280.8 230.328  L 280.8 230.328  " style="fill:none;stroke:#ff0000;stroke-linecap:square;stroke-width:2;"/>
   </g>
   <g id="line2d_5">
    <path clip-path="url(#pe30c2de018)" d="M 258.48 252.648  L 258.48 208.008  " style="fill:none;stroke:#ff0000;stroke-linecap:square;stroke-width:2;"/>
   </g>
   <g id="line2d_6">
    <path clip-path="url(#pe30c2de018)" d="M 236.16 230.328  L 280.8 230.328  " style="fill:none;stroke:#ff0000;stroke-linecap:square;stroke-width:2;"/>
   </g>
   <g id="line2d_7">
    <path clip-path="url(#pe30c2de018)" d="M 124.56 208.008  L 303.12 208.008  L 303.12 163.368  L 124.56 163.368  L 124.56 208.008  " style="fill:none;stroke:#ff0000;stroke-linecap:square;stroke-width:2;"/>
   </g>
   <g id="line2d_8">
    <path clip-path="url(#pe30c2de018)" d="M 169.2 163.368  L 225 163.368  L 225 107.568  L 169.2 107.568  L 169.2 163.368  " style="fill:none;stroke:#ff0000;stroke-linecap:square;stroke-width:2;"/>
   </g>
  </g>
 </g>
 <defs>
  <clipPath id="pe30c2de018">
   <rect height="200.88" width="357.12" x="57.6" y="74.088"/>
  </clipPath>
 </defs>
 <defs>
  <pattern height="72" id="h2c6c35bd00" patternUnits="userSpaceOnUse" width="72" x="0" y="0">
   <rect fill="#ffffff" height="73" width="73" x="0" y="0"/>
   <path d="M -36 36  L 36 -36  M -24 48  L 48 -24  M -12 60  L 60 -12  M 0 72  L 72 0  M 12 84  L 84 12  M 24 96  L 96 24  M 36 108  L 108 36  " style="fill:#ff0000;stroke:#ff0000;stroke-linecap:butt;stroke-linejoin:miter;stroke-width:1.0;"/>
  </pattern>
 </defs>
</svg>