<svg xmlns="http://www.w3.org/2000/svg" xmlns:xlink="http://www.w3.org/1999/xlink" height="345.6pt" version="1.1" viewBox="0 0 460.8 345.6" width="460.8pt">
 <metadata>
  <rdf:RDF xmlns:cc="http://creativecommons.org/ns#" xmlns:dc="http://purl.org/dc/elements/1.1/" xmlns:rdf="http://www.w3.org/1999/02/22-rdf-syntax-ns#">
   <cc:Work>
    <dc:type rdf:resource="http://purl.org/dc/dcmitype/StillImage"/>
    <dc:date>2020-08-09T11:20:23.676354</dc:date>
    <dc:format>image/svg+xml</dc:format>
    <dc:creator>
     <cc:Agent>
      <dc:title>Matplotlib v3.3.0, https://matplotlib.org/</dc:title>
     </cc:Agent>
    </dc:creator>
   </cc:Work>
  </rdf:RDF>
 </metadata>
 <defs>
  <style type="text/css">*{stroke-linecap:butt;stroke-linejoin:round;}</style>
 </defs>
 <g id="figure_1">
  <g id="patch_1">
   <path d="M 0 345.6  L 460.8 345.6  L 460.8 0  L 0 0  z " style="fill:#ffffff;"/>
  </g>
  <g id="axes_1">
   <g id="line2d_1">
    <path clip-path="url(#p537ba0b28d)" d="M 179.444017 176.79261  L 210.171983 194.53341  L 219.042383 179.169427  L 188.314417 161.428627  L 179.444017 176.79261  " style="fill:none;stroke:#808080;stroke-linecap:square;stroke-width:2;"/>
   </g>
   <g id="patch_2">
    <path clip-path="url(#p537ba0b28d)" d="M 176.444017 173.79261  L 207.171983 191.53341  L 216.042383 176.169427  L 185.314417 158.428627  z " style="fill:#0000ff;stroke:#000000;stroke-linejoin:miter;stroke-width:2;"/>
   </g>
   <g id="patch_3">
    <path clip-path="url(#p537ba0b28d)" d="M 191.808 182.66301  L 190.612983 188.50276  L 188.988242 187.564715  L 174.074882 213.395413  L 174.059518 213.386542  L 188.972878 187.555845  L 187.348137 186.6178  z " style="stroke:#000000;stroke-linejoin:miter;stroke-width:2;"/>
   </g>
   <g id="patch_4">
    <path clip-path="url(#p537ba0b28d)" d="M 138.5856 151.935043  L 315.9936 254.3616  L 315.9936 258.7968  L 138.5856 156.370243  z " style="fill:url(#h8796511320);stroke:#000000;stroke-linejoin:miter;stroke-width:2;"/>
   </g>
   <g id="patch_5">
    <path clip-path="url(#p537ba0b28d)" d="M 196.2432 210.462619  L 194.35824 204.807739  L 196.23433 204.807739  L 196.23433 174.981019  L 196.25207 174.981019  L 196.25207 204.807739  L 198.12816 204.807739  z " style="stroke:#000000;stroke-linejoin:miter;stroke-width:2;"/>
   </g>
   <g id="line2d_2">
    <path clip-path="url(#p537ba0b28d)" d="M 174.0672 213.390977  L 191.808 182.66301  " style="fill:none;stroke:#000000;stroke-linecap:square;stroke-width:2;"/>
   </g>
   <g id="line2d_3">
    <path clip-path="url(#p537ba0b28d)" d="M 191.808 182.66301  L 227.2896 121.207076  " style="fill:none;stroke:#000000;stroke-dasharray:2,3.3;stroke-dashoffset:0;stroke-width:2;"/>
   </g>
   <g id="line2d_4">
    <path clip-path="url(#p537ba0b28d)" d="M 227.2896 121.207076  L 288.745534 156.688676  " style="fill:none;stroke:#000000;stroke-linecap:square;stroke-width:2;"/>
   </g>
   <g id="line2d_5">
    <path clip-path="url(#p537ba0b28d)" d="M 285.729598 151.464922  L 288.745534 156.688676  " style="fill:none;stroke:#000000;stroke-linecap:square;stroke-width:2;"/>
   </g>
   <g id="line2d_6">
    <path clip-path="url(#p537ba0b28d)" d="M 282.713662 156.688676  L 288.745534 156.688676  " style="fill:none;stroke:#000000;stroke-linecap:square;stroke-width:2;"/>
   </g>
   <g id="line2d_7">
    <path clip-path="url(#p537ba0b28d)" d="M 298.2528 254.3616  L 227.2896 254.3616  " style="fill:none;stroke:#000000;stroke-linecap:square;stroke-width:2;"/>
   </g>
   <g id="line2d_8">
    <path clip-path="url(#p537ba0b28d)" d="M 196.2432 174.981019  L 196.2432 210.462619  " style="fill:none;stroke:#000000;stroke-linecap:square;stroke-width:2;"/>
   </g>
   <g id="line2d_9">
    <path clip-path="url(#p537ba0b28d)" d="M 269.90165 227.7504  L 268.294168 230.752533  L 266.881968 233.851323  L 265.670832 237.034081  L 264.665718 240.287779  L 263.870742 243.599095  L 263.289157 246.954474  L 262.923345 250.340177  L 262.774803 253.742343  L 262.7712 254.3616  L 262.7712 254.3616  " style="fill:none;stroke:#000000;stroke-linecap:square;"/>
   </g>
   <g id="text_1">
    <!-- $N$ -->
    <g transform="translate(164.326566 220.791296)scale(0.14 -0.14)">
     <defs>
      <path d="M 74 57.53125  C 75.09375 61.8125 76.703125 64.796875 84.296875 65.09375  C 84.59375 65.09375 85.796875 65.1875 85.796875 66.890625  C 85.796875 68 84.90625 68 84.5 68  C 82.5 68 77.40625 67.796875 75.40625 67.796875  L 70.59375 67.796875  C 69.203125 67.796875 67.40625 68 66 68  C 65.40625 68 64.203125 68 64.203125 66.09375  C 64.203125 65.09375 65 65.09375 65.703125 65.09375  C 71.703125 64.890625 72.09375 62.609375 72.09375 60.8125  C 72.09375 59.921875 72 59.625 71.703125 58.21875  L 60.40625 13.34375  L 39 66.296875  C 38.296875 67.890625 38.203125 68 36 68  L 23.796875 68  C 21.796875 68 20.90625 68 20.90625 66.09375  C 20.90625 65.09375 21.59375 65.09375 23.5 65.09375  C 24 65.09375 29.90625 65.09375 29.90625 64.203125  C 29.90625 64 29.703125 63.203125 29.59375 62.90625  L 16.296875 10.15625  C 15.09375 5.28125 12.703125 3.1875 6.09375 2.890625  C 5.59375 2.890625 4.59375 2.796875 4.59375 1  C 4.59375 0 5.59375 0 5.90625 0  C 7.90625 0 13 0.1875 15 0.1875  L 19.796875 0.1875  C 21.203125 0.1875 22.90625 0 24.296875 0  C 25 0 26.09375 0 26.09375 1.890625  C 26.09375 2.796875 25.09375 2.890625 24.703125 2.890625  C 21.40625 2.984375 18.203125 3.59375 18.203125 7.171875  C 18.203125 7.96875 18.40625 8.859375 18.59375 9.65625  L 32.09375 62.90625  C 32.703125 61.90625 32.703125 61.703125 33.09375 60.8125  L 56.90625 1.796875  C 57.40625 0.59375 57.59375 0 58.5 0  C 59.5 0 59.59375 0.296875 60 2  z " id="CMMI12-78"/>
     </defs>
     <use transform="scale(0.996264)" xlink:href="#CMMI12-78"/>
    </g>
   </g>
   <g id="text_2">
    <!-- $c$ -->
    <g transform="translate(193.304376 174.981019)scale(0.14 -0.14)">
     <defs>
      <path d="M 39.09375 38  C 37.203125 38 36.296875 38 34.90625 36.796875  C 34.296875 36.296875 33.203125 34.796875 33.203125 33.1875  C 33.203125 31.1875 34.703125 29.984375 36.59375 29.984375  C 39 29.984375 41.703125 31.984375 41.703125 35.984375  C 41.703125 40.484375 37.09375 44 30.203125 44  C 17.09375 44 4 30.1875 4 15.796875  C 4 6.96875 9.40625 -1 19.59375 -1  C 33.203125 -1 41.796875 9.71875 41.796875 11.03125  C 41.796875 11.640625 41.203125 12.140625 40.796875 12.140625  C 40.5 12.140625 40.40625 12.046875 39.5 11.125  C 33.09375 2.515625 23.59375 1 19.796875 1  C 12.90625 1 10.703125 7.078125 10.703125 12.140625  C 10.703125 15.6875 12.40625 25.53125 16 32.390625  C 18.59375 37.09375 24 41.984375 30.296875 41.984375  C 31.59375 41.984375 37.09375 41.8125 39.09375 38  z " id="CMMI12-99"/>
     </defs>
     <use transform="scale(0.996264)" xlink:href="#CMMI12-99"/>
    </g>
   </g>
   <g id="text_3">
    <!-- $x$ -->
    <g transform="translate(290.669321 160.039716)scale(0.14 -0.14)">
     <defs>
      <path d="M 47.40625 41  C 44.203125 40.390625 43 37.984375 43 36.09375  C 43 33.6875 44.90625 32.890625 46.296875 32.890625  C 49.296875 32.890625 51.40625 35.484375 51.40625 38.1875  C 51.40625 42.09375 46.59375 44 42.40625 44  C 36.296875 44 32.90625 38.296875 32 36.390625  C 29.703125 43.59375 23.5 44 21.703125 44  C 11.5 44 6.09375 31.140625 6.09375 28.890625  C 6.09375 28.484375 6.5 27.96875 7.203125 27.96875  C 8 27.96875 8.203125 28.578125 8.40625 28.984375  C 11.796875 40.1875 18.5 41.984375 21.40625 41.984375  C 25.90625 41.984375 26.796875 38.09375 26.796875 35.6875  C 26.796875 33.484375 26.203125 31.140625 25 26.21875  L 21.59375 12.15625  C 20.09375 6.09375 17.203125 1 11.90625 1  C 11.40625 1 8.90625 1 6.796875 1.96875  C 10.40625 2.59375 11.203125 5.59375 11.203125 6.796875  C 11.203125 8.796875 9.703125 10 7.796875 10  C 5.40625 10 2.796875 7.890625 2.796875 4.6875  C 2.796875 0.890625 7.5 -1 11.796875 -1  C 16.59375 -1 20 2.390625 22.09375 6.484375  C 23.703125 1 28.703125 -1 32.40625 -1  C 42.59375 -1 48 11.734375 48 14  C 48 14.515625 47.59375 14.921875 47 14.921875  C 46.09375 14.921875 46 14.40625 45.703125 13.59375  C 43 4.6875 37.203125 1 32.703125 1  C 29.203125 1 27.296875 3.1875 27.296875 7.296875  C 27.296875 9.484375 27.703125 11.125 29.296875 17.90625  L 32.796875 31.859375  C 34.296875 37.890625 37.703125 41.984375 42.296875 41.984375  C 42.5 41.984375 45.296875 41.984375 47.40625 41  z " id="CMMI12-120"/>
     </defs>
     <use transform="scale(0.996264)" xlink:href="#CMMI12-120"/>
    </g>
   </g>
   <g id="text_4">
    <!-- $A$ -->
    <g transform="translate(133.466651 151.935043)scale(0.14 -0.14)">
     <defs>
      <path d="M 17 11.25  C 13.5 5.234375 10.09375 3.203125 5.296875 2.890625  C 4.203125 2.796875 3.40625 2.796875 3.40625 1  C 3.40625 0.390625 3.90625 0 4.59375 0  C 6.40625 0 10.90625 0.1875 12.703125 0.1875  C 15.59375 0.1875 18.796875 0 21.59375 0  C 22.203125 0 23.40625 0 23.40625 1.890625  C 23.40625 2.796875 22.59375 2.890625 22 2.890625  C 19.703125 3.09375 17.796875 3.90625 17.796875 6.359375  C 17.796875 7.78125 18.40625 8.90625 19.703125 11.15625  L 27.296875 24  L 52.796875 24  C 52.90625 23.078125 52.90625 22.265625 53 21.34375  C 53.296875 18.6875 54.5 8.09375 54.5 6.15625  C 54.5 3.09375 49.40625 2.890625 47.796875 2.890625  C 46.703125 2.890625 45.59375 2.890625 45.59375 1.09375  C 45.59375 0 46.5 0 47.09375 0  C 48.796875 0 50.796875 0.1875 52.5 0.1875  L 58.203125 0.1875  C 64.296875 0.1875 68.703125 0 68.796875 0  C 69.5 0 70.59375 0 70.59375 1.890625  C 70.59375 2.890625 69.703125 2.890625 68.203125 2.890625  C 62.703125 2.890625 62.59375 3.8125 62.296875 6.875  L 56.203125 68.796875  C 56 70.796875 55.59375 71 54.5 71  C 53.5 71 52.90625 70.796875 52 69.296875  z M 29 26.890625  L 49.09375 59.859375  L 52.5 26.890625  z " id="CMMI12-65"/>
     </defs>
     <use transform="scale(0.996264)" xlink:href="#CMMI12-65"/>
    </g>
   </g>
   <g id="text_5">
    <!-- $B$ -->
    <g transform="translate(310.806045 254.3616)scale(0.14 -0.14)">
     <defs>
      <path d="M 36.59375 61.171875  C 37.5 64.890625 37.90625 65.09375 41.796875 65.09375  L 54.796875 65.09375  C 66.09375 65.09375 66.09375 55.421875 66.09375 54.515625  C 66.09375 46.359375 58 36 44.796875 36  L 30.40625 36  z M 53.5 35.1875  C 64.40625 37.203125 74.296875 44.859375 74.296875 54.109375  C 74.296875 61.96875 67.40625 68 56.09375 68  L 24 68  C 22.09375 68 21.203125 68 21.203125 66.09375  C 21.203125 65.09375 22.09375 65.09375 23.59375 65.09375  C 29.703125 65.09375 29.703125 64.28125 29.703125 63.171875  C 29.703125 62.984375 29.703125 62.375 29.296875 60.859375  L 15.796875 7.328125  C 14.90625 3.875 14.703125 2.890625 7.703125 2.890625  C 5.796875 2.890625 4.796875 2.890625 4.796875 1.09375  C 4.796875 0 5.40625 0 7.40625 0  L 41.703125 0  C 57 0 68.796875 11.453125 68.796875 21.390625  C 68.796875 29.46875 61.59375 34.390625 53.5 35.1875  z M 39.296875 2.890625  L 25.796875 2.890625  C 24.40625 2.890625 24.203125 2.890625 23.59375 2.984375  C 22.5 3.09375 22.40625 3.28125 22.40625 4.078125  C 22.40625 4.765625 22.59375 5.359375 22.796875 6.234375  L 29.796875 34  L 48.59375 34  C 60.40625 34 60.40625 23.171875 60.40625 22.375  C 60.40625 12.9375 51.703125 2.890625 39.296875 2.890625  z " id="CMMI12-66"/>
     </defs>
     <use transform="scale(0.996264)" xlink:href="#CMMI12-66"/>
    </g>
   </g>
   <g id="text_6">
    <!-- $Mg$ -->
    <g transform="translate(185.638839 219.007771)scale(0.14 -0.14)">
     <defs>
      <path d="M 90.796875 60.71875  C 91.703125 64.09375 91.90625 65.09375 99 65.09375  C 100.90625 65.09375 101.796875 65.09375 101.796875 66.984375  C 101.796875 68 101.09375 68 99.203125 68  L 87.203125 68  C 84.703125 68 84.59375 67.890625 83.5 66.296875  L 47 8.859375  L 39.5 65.796875  C 39.203125 68 39.09375 68 36.5 68  L 24.09375 68  C 22.203125 68 21.296875 68 21.296875 66.09375  C 21.296875 65.09375 22.203125 65.09375 23.703125 65.09375  C 29.796875 65.09375 29.796875 64.296875 29.796875 63.203125  C 29.796875 63 29.796875 62.40625 29.40625 60.90625  L 16.59375 10.15625  C 15.40625 5.375 13.09375 3.1875 6.40625 2.890625  C 6.09375 2.890625 4.90625 2.796875 4.90625 1.09375  C 4.90625 0 5.796875 0 6.203125 0  C 8.203125 0 13.296875 0.1875 15.296875 0.1875  L 20.09375 0.1875  C 21.5 0.1875 23.203125 0 24.59375 0  C 25.296875 0 26.40625 0 26.40625 1.890625  C 26.40625 2.796875 25.40625 2.890625 25 2.890625  C 21.703125 2.984375 18.5 3.59375 18.5 7.171875  C 18.5 8.171875 18.5 8.265625 18.90625 9.65625  L 32.703125 64.5  L 32.796875 64.5  L 41.09375 2.6875  C 41.40625 0.296875 41.5 0 42.40625 0  C 43.5 0 44 0.796875 44.5 1.6875  L 84.703125 64.984375  L 84.796875 64.984375  L 70.296875 7.375  C 69.40625 3.890625 69.203125 2.890625 62.203125 2.890625  C 60.296875 2.890625 59.296875 2.890625 59.296875 1.09375  C 59.296875 0 60.203125 0 60.796875 0  C 62.5 0 64.5 0.1875 66.203125 0.1875  L 78 0.1875  C 79.703125 0.1875 81.796875 0 83.5 0  C 84.296875 0 85.40625 0 85.40625 1.890625  C 85.40625 2.890625 84.5 2.890625 83 2.890625  C 76.90625 2.890625 76.90625 3.6875 76.90625 4.6875  C 76.90625 4.78125 76.90625 5.484375 77.09375 6.28125  z " id="CMMI12-77"/>
      <path d="M 33.796875 12.671875  C 33.40625 11.0625 33.203125 10.671875 31.90625 9.171875  C 27.796875 3.890625 23.59375 2 20.5 2  C 17.203125 2 14.09375 4.578125 14.09375 11.46875  C 14.09375 16.75 17.09375 27.921875 19.296875 32.421875  C 22.203125 38 26.703125 41.984375 30.90625 41.984375  C 37.5 41.984375 38.796875 33.8125 38.796875 33.21875  L 38.5 31.8125  z M 40 37.40625  C 38.703125 40.296875 35.90625 44 30.90625 44  C 20 44 7.59375 30.328125 7.59375 15.453125  C 7.59375 5.078125 13.90625 0 20.296875 0  C 25.59375 0 30.296875 4.1875 32.09375 6.1875  L 29.90625 -2.75  C 28.5 -8.125 27.90625 -10.578125 24.296875 -14  C 20.203125 -18 16.40625 -18 14.203125 -18  C 11.203125 -18 8.703125 -17.8125 6.203125 -17.03125  C 9.40625 -16.15625 10.203125 -13.40625 10.203125 -12.328125  C 10.203125 -10.765625 9 -9.203125 6.796875 -9.203125  C 4.40625 -9.203125 1.796875 -11.15625 1.796875 -14.390625  C 1.796875 -18.40625 5.90625 -20 14.40625 -20  C 27.296875 -20 34 -11.84375 35.296875 -6.5625  L 46.40625 37.90625  C 46.703125 39.09375 46.703125 39.296875 46.703125 39.5  C 46.703125 40.890625 45.59375 42 44.09375 42  C 41.703125 42 40.296875 40 40 37.3125  z " id="CMMI12-103"/>
     </defs>
     <use transform="scale(0.996264)" xlink:href="#CMMI12-77"/>
     <use transform="translate(104.780079 0)scale(0.996264)" xlink:href="#CMMI12-103"/>
    </g>
   </g>
   <g id="text_7">
    <!-- $\theta$ -->
    <g transform="translate(255.638048 239.28566)scale(0.18 -0.18)">
     <defs>
      <path d="M 44.296875 50  C 44.296875 60.140625 41.09375 70 32.90625 70  C 18.90625 70 4 40.859375 4 18.984375  C 4 14.40625 5 -1 15.5 -1  C 29.09375 -1 44.296875 27.421875 44.296875 50  z M 14 36  C 15.5 41.859375 17.59375 50.203125 21.59375 57.265625  C 24.90625 63.21875 28.40625 67.984375 32.796875 67.984375  C 36.09375 67.984375 38.296875 65.203125 38.296875 55.671875  C 38.296875 52.09375 38 47.125 35.09375 36  z M 34.40625 33  C 31.90625 23.25 29.796875 17 26.203125 10.734375  C 23.296875 5.65625 19.796875 1 15.59375 1  C 12.5 1 10 3.375 10 13.21875  C 10 19.671875 11.59375 26.4375 13.203125 33  z " id="CMMI12-18"/>
     </defs>
     <use transform="scale(0.996264)" xlink:href="#CMMI12-18"/>
    </g>
   </g>
  </g>
 </g>
 <defs>
  <clipPath id="p537ba0b28d">
   <rect height="266.112" width="301.5936" x="85.3632" y="41.472"/>
  </clipPath>
 </defs>
 <defs>
  <pattern height="72" id="h8796511320" patternUnits="userSpaceOnUse" width="72" x="0" y="0">
   <rect fill="#ffffff" height="73" width="73" x="0" y="0"/>
   <path d="M -36 36  L 36 -36  M -24 48  L 48 -24  M -12 60  L 60 -12  M 0 72  L 72 0  M 12 84  L 84 12  M 24 96  L 96 24  M 36 108  L 108 36  " style="fill:#000000;stroke:#000000;stroke-linecap:butt;stroke-linejoin:miter;stroke-width:1.0;"/>
  </pattern>
 </defs>
</svg>