<svg xmlns="http://www.w3.org/2000/svg" xmlns:xlink="http://www.w3.org/1999/xlink" height="345.6pt" version="1.1" viewBox="0 0 460.8 345.6" width="460.8pt">
 <metadata>
  <rdf:RDF xmlns:cc="http://creativecommons.org/ns#" xmlns:dc="http://purl.org/dc/elements/1.1/" xmlns:rdf="http://www.w3.org/1999/02/22-rdf-syntax-ns#">
   <cc:Work>
    <dc:type rdf:resource="http://purl.org/dc/dcmitype/StillImage"/>
    <dc:date>2020-08-09T11:20:27.770709</dc:date>
    <dc:format>image/svg+xml</dc:format>
    <dc:creator>
     <cc:Agent>
      <dc:title>Matplotlib v3.3.0, https://matplotlib.org/</dc:title>
     </cc:Agent>
    </dc:creator>
   </cc:Work>
  </rdf:RDF>
 </metadata>
 <defs>
  <style type="text/css">*{stroke-linecap:butt;stroke-linejoin:round;}</style>
 </defs>
 <g id="figure_1">
  <g id="patch_1">
   <path d="M 0 345.6  L 460.8 345.6  L 460.8 0  L 0 0  z " style="fill:#ffffff;"/>
  </g>
  <g id="axes_1">
   <g id="patch_2">
    <path clip-path="url(#p84f16640b5)" d="M 291.813069 226.998528  L 291.807279 226.666843  L 291.789918 226.335562  L 291.761005 226.005089  L 291.720577 225.675827  L 291.668682 225.348175  L 291.605384 225.022535  L 291.530759 224.699302  L 291.4449 224.37887  L 291.34791 224.06163  L 291.239908 223.747968  L 291.121024 223.438267  L 290.991405 223.132903  L 290.851207 222.832248  L 290.700603 222.53667  L 290.539774 222.246528  L 290.368918 221.962175  L 290.188242 221.683958  L 289.997966 221.412217  L 289.798323 221.147281  L 289.589555 220.889474  L 289.371917 220.63911  L 289.145674 220.396495  L 288.911102 220.161922  L 288.668486 219.935679  L 288.418122 219.718041  L 288.160316 219.509274  L 287.89538 219.30963  L 287.623638 219.119355  L 287.345422 218.938679  L 287.061069 218.767822  L 286.770927 218.606994  L 286.475348 218.456389  L 286.174694 218.316192  L 285.86933 218.186572  L 285.559628 218.067689  L 285.245966 217.959687  L 284.928726 217.862697  L 284.608295 217.776837  L 284.285062 217.702213  L 283.959421 217.638915  L 283.63177 217.58702  L 283.302507 217.546592  L 282.972034 217.517679  L 282.640754 217.500317  L 282.309069 217.494528  L 281.977384 217.500317  L 281.646103 217.517679  L 281.31563 217.546592  L 280.986368 217.58702  L 280.658717 217.638915  L 280.333076 217.702213  L 280.009843 217.776837  L 279.689411 217.862697  L 279.372171 217.959687  L 279.058509 218.067689  L 278.748808 218.186572  L 278.443444 218.316192  L 278.142789 218.456389  L 277.847211 218.606994  L 277.557069 218.767822  L 277.272716 218.938679  L 276.994499 219.119355  L 276.722758 219.30963  L 276.457822 219.509274  L 276.200015 219.718041  L 275.949652 219.935679  L 275.707036 220.161922  L 275.472463 220.396495  L 275.24622 220.63911  L 275.028582 220.889474  L 274.819815 221.147281  L 274.620171 221.412217  L 274.429896 221.683958  L 274.24922 221.962175  L 274.078363 222.246528  L 273.917535 222.53667  L 273.76693 222.832248  L 273.626733 223.132903  L 273.497113 223.438267  L 273.37823 223.747968  L 273.270228 224.06163  L 273.173238 224.37887  L 273.087378 224.699302  L 273.012754 225.022535  L 272.949456 225.348175  L 272.897561 225.675827  L 272.857133 226.005089  L 272.82822 226.335562  L 272.810858 226.666843  L 272.805069 226.998528  L 272.810858 227.330213  L 272.82822 227.661493  L 272.857133 227.991966  L 272.897561 228.321229  L 272.949456 228.64888  L 273.012754 228.97452  L 273.087378 229.297753  L 273.173238 229.618185  L 273.270228 229.935425  L 273.37823 230.249087  L 273.497113 230.558789  L 273.626733 230.864153  L 273.76693 231.164807  L 273.917535 231.460385  L 274.078363 231.750528  L 274.24922 232.03488  L 274.429896 232.313097  L 274.620171 232.584839  L 274.819815 232.849774  L 275.028582 233.107581  L 275.24622 233.357945  L 275.472463 233.600561  L 275.707036 233.835133  L 275.949652 234.061376  L 276.200015 234.279014  L 276.457822 234.487782  L 276.722758 234.687425  L 276.994499 234.877701  L 277.272716 235.058377  L 277.557069 235.229233  L 277.847211 235.390062  L 278.142789 235.540666  L 278.443444 235.680864  L 278.748808 235.810483  L 279.058509 235.929366  L 279.372171 236.037369  L 279.689411 236.134359  L 280.009843 236.220218  L 280.333076 236.294843  L 280.658717 236.358141  L 280.986368 236.410035  L 281.31563 236.450464  L 281.646103 236.479376  L 281.977384 236.496738  L 282.309069 236.502528  L 282.640754 236.496738  L 282.972034 236.479376  L 283.302507 236.450464  L 283.63177 236.410035  L 283.959421 236.358141  L 284.285062 236.294843  L 284.608295 236.220218  L 284.928726 236.134359  L 285.245966 236.037369  L 285.559628 235.929366  L 285.86933 235.810483  L 286.174694 235.680864  L 286.475348 235.540666  L 286.770927 235.390062  L 287.061069 235.229233  L 287.345422 235.058377  L 287.623638 234.877701  L 287.89538 234.687425  L 288.160316 234.487782  L 288.418122 234.279014  L 288.668486 234.061376  L 288.911102 233.835133  L 289.145674 233.600561  L 289.371917 233.357945  L 289.589555 233.107581  L 289.798323 232.849774  L 289.997966 232.584839  L 290.188242 232.313097  L 290.368918 232.03488  L 290.539774 231.750528  L 290.700603 231.460385  L 290.851207 231.164807  L 290.991405 230.864153  L 291.121024 230.558789  L 291.239908 230.249087  L 291.34791 229.935425  L 291.4449 229.618185  L 291.530759 229.297753  L 291.605384 228.97452  L 291.668682 228.64888  L 291.720577 228.321229  L 291.761005 227.991966  L 291.789918 227.661493  L 291.807279 227.330213  z " style="fill:#0000ff;stroke:#0000ff;stroke-linejoin:miter;stroke-width:2;"/>
   </g>
   <g id="patch_3">
    <path clip-path="url(#p84f16640b5)" d="M 312.192 144.7488  L 310.7664 140.472  L 312.172992 140.472  L 312.172992 81.3888  L 312.211008 81.3888  L 312.211008 140.472  L 313.6176 140.472  z " style="stroke:#000000;stroke-linejoin:miter;stroke-width:2;"/>
   </g>
   <g id="patch_4">
    <path clip-path="url(#p84f16640b5)" d="M 292.016384 218.853123  L 288.175237 216.493262  L 289.252749 215.589122  L 169.820754 73.255614  L 169.849876 73.231177  L 289.281871 215.564686  L 290.359383 214.660546  z " style="stroke:#000000;stroke-linejoin:miter;"/>
   </g>
   <g id="patch_5">
    <path clip-path="url(#p84f16640b5)" d="M 169.835315 73.243395  L 173.676462 75.603256  L 172.59895 76.507396  L 292.030945 218.840905  L 292.001823 218.865341  L 172.569828 76.531832  L 171.492316 77.435972  z " style="stroke:#000000;stroke-linejoin:miter;"/>
   </g>
   <g id="line2d_1">
    <path clip-path="url(#p84f16640b5)" d="M 160.128 81.3888  L 282.309069 226.998528  " style="fill:none;stroke:#0000ff;stroke-linecap:square;stroke-width:2;"/>
   </g>
   <g id="line2d_2">
    <path clip-path="url(#p84f16640b5)" d="M 160.128 81.3888  L 160.128 271.4688  " style="fill:none;stroke:#000000;stroke-linecap:square;"/>
   </g>
   <g id="line2d_3">
    <path clip-path="url(#p84f16640b5)" d="M 160.128 128.9088  L 163.442828 128.793044  L 166.741506 128.446339  L 170.007964 127.870374  L 173.226287 127.067956  L 176.380797 126.042993  L 179.456125 124.80048  L 182.437289 123.34647  L 185.309763 121.688046  L 188.059555 119.833288  L 190.673267 117.791232  L 190.673267 117.791232  " style="fill:none;stroke:#0000ff;stroke-linecap:square;stroke-width:2;"/>
   </g>
   <g id="line2d_4">
    <path clip-path="url(#p84f16640b5)" d="M 160.128 271.4688  L 166.761696 271.353008  L 173.387311 271.005775  L 179.99677 270.427522  L 186.582023 269.618955  L 193.135046 268.581058  L 199.647854 267.315096  L 206.112514 265.822612  L 212.521149 264.105423  L 218.86595 262.165623  L 225.139189 260.005573  L 231.333221 257.627907  L 237.440501 255.035521  L 243.453588 252.231572  L 249.365155 249.219478  L 255.168 246.002909  L 260.855054 242.585782  L 266.419387 238.972262  L 271.854221 235.16675  L 277.152933 231.173884  L 282.309069 226.998528  L 282.309069 226.998528  " style="fill:none;stroke:#000000;stroke-linecap:square;"/>
   </g>
   <g id="line2d_5">
    <path clip-path="url(#p84f16640b5)" d="M 312.192 81.3888  L 312.192 144.7488  " style="fill:none;stroke:#000000;stroke-linecap:square;stroke-width:2;"/>
   </g>
   <g id="line2d_6">
    <path clip-path="url(#p84f16640b5)" d="M 292.016384 218.853123  L 169.835315 73.243395  " style="fill:none;stroke:#000000;stroke-linecap:square;"/>
   </g>
   <g id="text_1">
    <!-- $\theta$ -->
    <g transform="translate(175.799063 133.187664)scale(0.14 -0.14)">
     <defs>
      <path d="M 44.296875 50  C 44.296875 60.140625 41.09375 70 32.90625 70  C 18.90625 70 4 40.859375 4 18.984375  C 4 14.40625 5 -1 15.5 -1  C 29.09375 -1 44.296875 27.421875 44.296875 50  z M 14 36  C 15.5 41.859375 17.59375 50.203125 21.59375 57.265625  C 24.90625 63.21875 28.40625 67.984375 32.796875 67.984375  C 36.09375 67.984375 38.296875 65.203125 38.296875 55.671875  C 38.296875 52.09375 38 47.125 35.09375 36  z M 34.40625 33  C 31.90625 23.25 29.796875 17 26.203125 10.734375  C 23.296875 5.65625 19.796875 1 15.59375 1  C 12.5 1 10 3.375 10 13.21875  C 10 19.671875 11.59375 26.4375 13.203125 33  z " id="CMMI12-18"/>
     </defs>
     <use transform="scale(0.996264)" xlink:href="#CMMI12-18"/>
    </g>
   </g>
   <g id="text_2">
    <!-- $g$ -->
    <g transform="translate(308.922241 151.21152)scale(0.14 -0.14)">
     <defs>
      <path d="M 33.796875 12.671875  C 33.40625 11.0625 33.203125 10.671875 31.90625 9.171875  C 27.796875 3.890625 23.59375 2 20.5 2  C 17.203125 2 14.09375 4.578125 14.09375 11.46875  C 14.09375 16.75 17.09375 27.921875 19.296875 32.421875  C 22.203125 38 26.703125 41.984375 30.90625 41.984375  C 37.5 41.984375 38.796875 33.8125 38.796875 33.21875  L 38.5 31.8125  z M 40 37.40625  C 38.703125 40.296875 35.90625 44 30.90625 44  C 20 44 7.59375 30.328125 7.59375 15.453125  C 7.59375 5.078125 13.90625 0 20.296875 0  C 25.59375 0 30.296875 4.1875 32.09375 6.1875  L 29.90625 -2.75  C 28.5 -8.125 27.90625 -10.578125 24.296875 -14  C 20.203125 -18 16.40625 -18 14.203125 -18  C 11.203125 -18 8.703125 -17.8125 6.203125 -17.03125  C 9.40625 -16.15625 10.203125 -13.40625 10.203125 -12.328125  C 10.203125 -10.765625 9 -9.203125 6.796875 -9.203125  C 4.40625 -9.203125 1.796875 -11.15625 1.796875 -14.390625  C 1.796875 -18.40625 5.90625 -20 14.40625 -20  C 27.296875 -20 34 -11.84375 35.296875 -6.5625  L 46.40625 37.90625  C 46.703125 39.09375 46.703125 39.296875 46.703125 39.5  C 46.703125 40.890625 45.59375 42 44.09375 42  C 41.703125 42 40.296875 40 40 37.3125  z " id="CMMI12-103"/>
     </defs>
     <use transform="scale(0.996264)" xlink:href="#CMMI12-103"/>
    </g>
   </g>
   <g id="text_3">
    <!-- $L$ -->
    <g transform="translate(233.838044 143.604638)scale(0.14 -0.14)">
     <defs>
      <path d="M 36.703125 60.3125  C 37.59375 64.09375 37.90625 65.09375 46.703125 65.09375  C 49.40625 65.09375 50.09375 65.09375 50.09375 66.984375  C 50.09375 68 49 68 48.59375 68  C 46.59375 68 44.296875 67.796875 42.296875 67.796875  L 28.90625 67.796875  C 27 67.796875 24.796875 68 22.90625 68  C 22.09375 68 21 68 21 66.09375  C 21 65.09375 21.90625 65.09375 23.40625 65.09375  C 29.5 65.09375 29.5 64.296875 29.5 63.203125  C 29.5 63 29.5 62.40625 29.09375 60.90625  L 15.59375 7.375  C 14.703125 3.890625 14.5 2.890625 7.5 2.890625  C 5.59375 2.890625 4.59375 2.890625 4.59375 1.09375  C 4.59375 0 5.203125 0 7.203125 0  L 52 0  C 54.203125 0 54.296875 0.09375 55 1.890625  L 62.703125 23.09375  C 62.90625 23.59375 63.09375 24.1875 63.09375 24.484375  C 63.09375 25.078125 62.59375 25.484375 62.09375 25.484375  C 62 25.484375 61.5 25.484375 61.296875 25.078125  C 61.09375 24.984375 61.09375 24.78125 60.296875 22.890625  C 57.09375 14.140625 52.59375 2.890625 35.703125 2.890625  L 26.09375 2.890625  C 24.703125 2.890625 24.5 2.890625 23.90625 2.984375  C 22.796875 3.09375 22.703125 3.296875 22.703125 4.09375  C 22.703125 4.78125 22.90625 5.375 23.09375 6.28125  z " id="CMMI12-76"/>
     </defs>
     <use transform="scale(0.996264)" xlink:href="#CMMI12-76"/>
    </g>
   </g>
   <g id="text_4">
    <!-- $m$ -->
    <g transform="translate(288.554274 241.559501)scale(0.14 -0.14)">
     <defs>
      <path d="M 20.59375 29.21875  C 20.796875 29.828125 23.296875 34.8125 27 38  C 29.59375 40.390625 33 41.984375 36.90625 41.984375  C 40.90625 41.984375 42.296875 39 42.296875 35.015625  C 42.296875 34.40625 42.296875 32.421875 41.09375 27.734375  L 38.59375 17.453125  C 37.796875 14.453125 35.90625 7.078125 35.703125 5.984375  C 35.296875 4.484375 34.703125 1.890625 34.703125 1.484375  C 34.703125 0.09375 35.796875 -1 37.296875 -1  C 40.296875 -1 40.796875 1.296875 41.703125 4.890625  L 47.703125 28.71875  C 47.90625 29.53125 53.09375 41.984375 64.09375 41.984375  C 68.09375 41.984375 69.5 39 69.5 35.015625  C 69.5 29.421875 65.59375 18.546875 63.40625 12.5625  C 62.5 10.171875 62 8.875 62 7.078125  C 62 2.59375 65.09375 -1 69.90625 -1  C 79.203125 -1 82.703125 13.65625 82.703125 14.265625  C 82.703125 14.765625 82.296875 15.15625 81.703125 15.15625  C 80.796875 15.15625 80.703125 14.859375 80.203125 13.15625  C 77.90625 5.1875 74.203125 1 70.203125 1  C 69.203125 1 67.59375 1.09375 67.59375 4.28125  C 67.59375 6.875 68.796875 10.078125 69.203125 11.171875  C 71 15.953125 75.5 27.734375 75.5 33.515625  C 75.5 39.5 72 44 64.40625 44  C 57.703125 44 52.296875 40.203125 48.296875 34.3125  C 48 39.703125 44.703125 44 37.203125 44  C 28.296875 44 23.59375 37.703125 21.796875 35.203125  C 21.5 40.890625 17.40625 44 13 44  C 10.09375 44 7.796875 42.59375 5.90625 38.796875  C 4.09375 35.203125 2.703125 29.125 2.703125 28.71875  C 2.703125 28.328125 3.09375 27.828125 3.796875 27.828125  C 4.59375 27.828125 4.703125 27.921875 5.296875 30.21875  C 6.796875 36.109375 8.703125 41.984375 12.703125 41.984375  C 15 41.984375 15.796875 40.390625 15.796875 37.40625  C 15.796875 35.203125 14.796875 31.3125 14.09375 28.234375  L 11.296875 17.453125  C 10.90625 15.5625 9.796875 11.0625 9.296875 9.265625  C 8.59375 6.671875 7.5 1.984375 7.5 1.484375  C 7.5 0.09375 8.59375 -1 10.09375 -1  C 11.296875 -1 12.703125 -0.40625 13.5 1.09375  C 13.703125 1.59375 14.59375 5.078125 15.09375 7.078125  L 17.296875 16.0625  z " id="CMMI12-109"/>
     </defs>
     <use transform="scale(0.996264)" xlink:href="#CMMI12-109"/>
    </g>
   </g>
  </g>
 </g>
 <defs>
  <clipPath id="p84f16640b5">
   <rect height="266.112" width="228.096" x="122.112" y="41.472"/>
  </clipPath>
 </defs>
</svg>