<svg xmlns="http://www.w3.org/2000/svg" xmlns:xlink="http://www.w3.org/1999/xlink" height="345.6pt" version="1.1" viewBox="0 0 460.8 345.6" width="460.8pt">
 <metadata>
  <rdf:RDF xmlns:cc="http://creativecommons.org/ns#" xmlns:dc="http://purl.org/dc/elements/1.1/" xmlns:rdf="http://www.w3.org/1999/02/22-rdf-syntax-ns#">
   <cc:Work>
    <dc:type rdf:resource="http://purl.org/dc/dcmitype/StillImage"/>
    <dc:date>2020-08-06T15:18:09.353041</dc:date>
    <dc:format>image/svg+xml</dc:format>
    <dc:creator>
     <cc:Agent>
      <dc:title>Matplotlib v3.3.0, https://matplotlib.org/</dc:title>
     </cc:Agent>
    </dc:creator>
   </cc:Work>
  </rdf:RDF>
 </metadata>
 <defs>
  <style type="text/css">*{stroke-linecap:butt;stroke-linejoin:round;}</style>
 </defs>
 <g id="figure_1">
  <g id="patch_1">
   <path d="M 0 345.6  L 460.8 345.6  L 460.8 0  L 0 0  z " style="fill:#ffffff;"/>
  </g>
  <g id="axes_1">
   <g id="patch_2">
    <path d="M 103.104 307.584  L 369.216 307.584  L 369.216 41.472  L 103.104 41.472  z " style="fill:#ffffff;"/>
   </g>
   <g id="matplotlib.axis_1">
    <g id="xtick_1">
     <g id="line2d_1">
      <defs>
       <path d="M 0 0  L 0 3.5  " id="m1fc5f69332" style="stroke:#000000;stroke-width:0.8;"/>
      </defs>
      <g>
       <use style="stroke:#000000;stroke-width:0.8;" x="103.104" xlink:href="#m1fc5f69332" y="307.584"/>
      </g>
     </g>
     <g id="text_1">
      <!-- $\mathdefault{−10.0}$ -->
      <g transform="translate(90.373921 321.502498)scale(0.1 -0.1)">
       <defs>
        <path d="M 65.90625 23  C 67.59375 23 69.40625 23 69.40625 25  C 69.40625 27 67.59375 27 65.90625 27  L 11.796875 27  C 10.09375 27 8.296875 27 8.296875 25  C 8.296875 23 10.09375 23 11.796875 23  z " id="CMSY10-0"/>
        <path d="M 26.59375 63.796875  C 26.59375 65.890625 26.5 66 25.09375 66  C 21.203125 61.359375 15.296875 59.890625 9.703125 59.6875  C 9.40625 59.6875 8.90625 59.6875 8.796875 59.5  C 8.703125 59.296875 8.703125 59.09375 8.703125 57  C 11.796875 57 17 57.59375 21 59.984375  L 21 7.296875  C 21 3.796875 20.796875 2.59375 12.203125 2.59375  L 9.203125 2.59375  L 9.203125 0  C 14 0.09375 19 0.1875 23.796875 0.1875  C 28.59375 0.1875 33.59375 0.09375 38.40625 0  L 38.40625 2.59375  L 35.40625 2.59375  C 26.796875 2.59375 26.59375 3.6875 26.59375 7.296875  z " id="CMR17-49"/>
        <path d="M 42 31.84375  C 42 37.96875 41.90625 48.421875 37.703125 56.453125  C 34 63.484375 28.09375 66 22.90625 66  C 18.09375 66 12 63.78125 8.203125 56.5625  C 4.203125 49.015625 3.796875 39.671875 3.796875 31.84375  C 3.796875 26.109375 3.90625 17.375 7 9.734375  C 11.296875 -0.609375 19 -2 22.90625 -2  C 27.5 -2 34.5 -0.109375 38.59375 9.4375  C 41.59375 16.375 42 24.5 42 31.84375  z M 22.90625 -0.40625  C 16.5 -0.40625 12.703125 5.125 11.296875 12.75  C 10.203125 18.6875 10.203125 27.328125 10.203125 32.953125  C 10.203125 40.6875 10.203125 47.109375 11.5 53.234375  C 13.40625 61.78125 19 64.390625 22.90625 64.390625  C 27 64.390625 32.296875 61.671875 34.203125 53.4375  C 35.5 47.71875 35.59375 40.984375 35.59375 32.953125  C 35.59375 26.421875 35.59375 18.375 34.40625 12.453125  C 32.296875 1.5 26.40625 -0.40625 22.90625 -0.40625  z " id="CMR17-48"/>
        <path d="M 18.40625 4.796875  C 18.40625 7.6875 16 9.6875 13.59375 9.6875  C 10.703125 9.6875 8.703125 7.296875 8.703125 4.890625  C 8.703125 2 11.09375 0 13.5 0  C 16.40625 0 18.40625 2.390625 18.40625 4.796875  z " id="CMMI12-58"/>
       </defs>
       <use transform="scale(0.996264)" xlink:href="#CMSY10-0"/>
       <use transform="translate(77.487468 0)scale(0.996264)" xlink:href="#CMR17-49"/>
       <use transform="translate(123.177945 0)scale(0.996264)" xlink:href="#CMR17-48"/>
       <use transform="translate(168.868422 0)scale(0.996264)" xlink:href="#CMMI12-58"/>
       <use transform="translate(195.965599 0)scale(0.996264)" xlink:href="#CMR17-48"/>
      </g>
     </g>
    </g>
    <g id="xtick_2">
     <g id="line2d_2">
      <g>
       <use style="stroke:#000000;stroke-width:0.8;" x="136.368" xlink:href="#m1fc5f69332" y="307.584"/>
      </g>
     </g>
     <g id="text_2">
      <!-- $\mathdefault{−7.5}$ -->
      <g transform="translate(126.128589 321.502498)scale(0.1 -0.1)">
       <defs>
        <path d="M 45.09375 61.796875  L 45.09375 64  L 21.59375 64  C 9.90625 64 9.703125 65.09375 9.296875 67  L 7.5 67  L 4.59375 48.5  L 6.40625 48.5  C 6.703125 50.40625 7.40625 55.5 8.59375 57.390625  C 9.203125 58.1875 16.59375 58.1875 18.296875 58.1875  L 40.296875 58.1875  L 29.203125 41.71875  C 21.796875 30.640625 16.703125 15.671875 16.703125 2.59375  C 16.703125 1.390625 16.703125 -2 20.296875 -2  C 23.90625 -2 23.90625 1.390625 23.90625 2.6875  L 23.90625 7.28125  C 23.90625 23.65625 26.703125 34.4375 31.296875 41.3125  z " id="CMR17-55"/>
        <path d="M 11.40625 58.59375  C 12.40625 58.1875 16.5 56.890625 20.703125 56.890625  C 30 56.890625 35.09375 61.890625 38 64.6875  C 38 65.484375 38 66 37.40625 66  C 37.296875 66 37.09375 66 36.296875 65.59375  C 32.796875 64.09375 28.703125 63 23.703125 63  C 20.703125 63 16.203125 63.359375 11.296875 65.484375  C 10.203125 66 10 66 9.90625 66  C 9.40625 66 9.296875 65.890625 9.296875 63.90625  L 9.296875 34.859375  C 9.296875 33.015625 9.296875 32.5 10.296875 32.5  C 10.796875 32.5 11 32.703125 11.5 33.421875  C 14.703125 38.046875 19.09375 40 24.09375 40  C 27.59375 40 35.09375 37.734375 35.09375 20.203125  C 35.09375 16.984375 35.09375 11.1875 32.09375 6.59375  C 29.59375 2.484375 25.703125 0.390625 21.40625 0.390625  C 14.796875 0.390625 8.09375 4.984375 6.296875 12.6875  C 6.703125 12.59375 7.5 12.390625 7.90625 12.390625  C 9.203125 12.390625 11.703125 13.09375 11.703125 16.1875  C 11.703125 18.890625 9.796875 20 7.90625 20  C 5.59375 20 4.09375 18.59375 4.09375 15.796875  C 4.09375 7.09375 11 -2 21.59375 -2  C 31.90625 -2 41.703125 6.890625 41.703125 19.796875  C 41.703125 32.09375 33.90625 41.59375 24.203125 41.59375  C 19.09375 41.59375 14.796875 39.6875 11.40625 36  z " id="CMR17-53"/>
       </defs>
       <use transform="scale(0.996264)" xlink:href="#CMSY10-0"/>
       <use transform="translate(77.487468 0)scale(0.996264)" xlink:href="#CMR17-55"/>
       <use transform="translate(123.177945 0)scale(0.996264)" xlink:href="#CMMI12-58"/>
       <use transform="translate(150.275122 0)scale(0.996264)" xlink:href="#CMR17-53"/>
      </g>
     </g>
    </g>
    <g id="xtick_3">
     <g id="line2d_3">
      <g>
       <use style="stroke:#000000;stroke-width:0.8;" x="169.632" xlink:href="#m1fc5f69332" y="307.584"/>
      </g>
     </g>
     <g id="text_3">
      <!-- $\mathdefault{−5.0}$ -->
      <g transform="translate(159.392589 321.502498)scale(0.1 -0.1)">
       <use transform="scale(0.996264)" xlink:href="#CMSY10-0"/>
       <use transform="translate(77.487468 0)scale(0.996264)" xlink:href="#CMR17-53"/>
       <use transform="translate(123.177945 0)scale(0.996264)" xlink:href="#CMMI12-58"/>
       <use transform="translate(150.275122 0)scale(0.996264)" xlink:href="#CMR17-48"/>
      </g>
     </g>
    </g>
    <g id="xtick_4">
     <g id="line2d_4">
      <g>
       <use style="stroke:#000000;stroke-width:0.8;" x="202.896" xlink:href="#m1fc5f69332" y="307.584"/>
      </g>
     </g>
     <g id="text_4">
      <!-- $\mathdefault{−2.5}$ -->
      <g transform="translate(192.656589 321.502498)scale(0.1 -0.1)">
       <defs>
        <path d="M 41.703125 15.46875  L 39.90625 15.46875  C 38.90625 8.390625 38.09375 7.1875 37.703125 6.59375  C 37.203125 5.796875 30 5.796875 28.59375 5.796875  L 9.40625 5.796875  C 13 9.6875 20 16.765625 28.5 24.9375  C 34.59375 30.71875 41.703125 37.5 41.703125 47.390625  C 41.703125 59.1875 32.296875 66 21.796875 66  C 10.796875 66 4.09375 56.296875 4.09375 47.296875  C 4.09375 43.390625 7 42.890625 8.203125 42.890625  C 9.203125 42.890625 12.203125 43.484375 12.203125 46.984375  C 12.203125 50.09375 9.59375 51 8.203125 51  C 7.59375 51 7 50.890625 6.59375 50.6875  C 8.5 59.1875 14.296875 63.390625 20.40625 63.390625  C 29.09375 63.390625 34.796875 56.5 34.796875 47.390625  C 34.796875 38.703125 29.703125 31.21875 24 24.734375  L 4.09375 2.296875  L 4.09375 0  L 39.296875 0  z " id="CMR17-50"/>
       </defs>
       <use transform="scale(0.996264)" xlink:href="#CMSY10-0"/>
       <use transform="translate(77.487468 0)scale(0.996264)" xlink:href="#CMR17-50"/>
       <use transform="translate(123.177945 0)scale(0.996264)" xlink:href="#CMMI12-58"/>
       <use transform="translate(150.275122 0)scale(0.996264)" xlink:href="#CMR17-53"/>
      </g>
     </g>
    </g>
    <g id="xtick_5">
     <g id="line2d_5">
      <g>
       <use style="stroke:#000000;stroke-width:0.8;" x="236.16" xlink:href="#m1fc5f69332" y="307.584"/>
      </g>
     </g>
     <g id="text_5">
      <!-- $\mathdefault{0.0}$ -->
      <g transform="translate(229.794961 321.502498)scale(0.1 -0.1)">
       <use transform="scale(0.996264)" xlink:href="#CMR17-48"/>
       <use transform="translate(45.690477 0)scale(0.996264)" xlink:href="#CMMI12-58"/>
       <use transform="translate(72.787654 0)scale(0.996264)" xlink:href="#CMR17-48"/>
      </g>
     </g>
    </g>
    <g id="xtick_6">
     <g id="line2d_6">
      <g>
       <use style="stroke:#000000;stroke-width:0.8;" x="269.424" xlink:href="#m1fc5f69332" y="307.584"/>
      </g>
     </g>
     <g id="text_6">
      <!-- $\mathdefault{2.5}$ -->
      <g transform="translate(263.058961 321.502498)scale(0.1 -0.1)">
       <use transform="scale(0.996264)" xlink:href="#CMR17-50"/>
       <use transform="translate(45.690477 0)scale(0.996264)" xlink:href="#CMMI12-58"/>
       <use transform="translate(72.787654 0)scale(0.996264)" xlink:href="#CMR17-53"/>
      </g>
     </g>
    </g>
    <g id="xtick_7">
     <g id="line2d_7">
      <g>
       <use style="stroke:#000000;stroke-width:0.8;" x="302.688" xlink:href="#m1fc5f69332" y="307.584"/>
      </g>
     </g>
     <g id="text_7">
      <!-- $\mathdefault{5.0}$ -->
      <g transform="translate(296.322961 321.502498)scale(0.1 -0.1)">
       <use transform="scale(0.996264)" xlink:href="#CMR17-53"/>
       <use transform="translate(45.690477 0)scale(0.996264)" xlink:href="#CMMI12-58"/>
       <use transform="translate(72.787654 0)scale(0.996264)" xlink:href="#CMR17-48"/>
      </g>
     </g>
    </g>
    <g id="xtick_8">
     <g id="line2d_8">
      <g>
       <use style="stroke:#000000;stroke-width:0.8;" x="335.952" xlink:href="#m1fc5f69332" y="307.584"/>
      </g>
     </g>
     <g id="text_8">
      <!-- $\mathdefault{7.5}$ -->
      <g transform="translate(329.586961 321.502498)scale(0.1 -0.1)">
       <use transform="scale(0.996264)" xlink:href="#CMR17-55"/>
       <use transform="translate(45.690477 0)scale(0.996264)" xlink:href="#CMMI12-58"/>
       <use transform="translate(72.787654 0)scale(0.996264)" xlink:href="#CMR17-53"/>
      </g>
     </g>
    </g>
    <g id="xtick_9">
     <g id="line2d_9">
      <g>
       <use style="stroke:#000000;stroke-width:0.8;" x="369.216" xlink:href="#m1fc5f69332" y="307.584"/>
      </g>
     </g>
     <g id="text_9">
      <!-- $\mathdefault{10.0}$ -->
      <g transform="translate(360.360293 321.502498)scale(0.1 -0.1)">
       <use transform="scale(0.996264)" xlink:href="#CMR17-49"/>
       <use transform="translate(45.690477 0)scale(0.996264)" xlink:href="#CMR17-48"/>
       <use transform="translate(91.380954 0)scale(0.996264)" xlink:href="#CMMI12-58"/>
       <use transform="translate(118.478131 0)scale(0.996264)" xlink:href="#CMR17-48"/>
      </g>
     </g>
    </g>
   </g>
   <g id="matplotlib.axis_2">
    <g id="ytick_1">
     <g id="line2d_10">
      <defs>
       <path d="M 0 0  L -3.5 0  " id="m7f5bd5ce00" style="stroke:#000000;stroke-width:0.8;"/>
      </defs>
      <g>
       <use style="stroke:#000000;stroke-width:0.8;" x="103.104" xlink:href="#m7f5bd5ce00" y="307.584"/>
      </g>
     </g>
     <g id="text_10">
      <!-- $\mathdefault{−10.0}$ -->
      <g transform="translate(70.643842 311.043249)scale(0.1 -0.1)">
       <use transform="scale(0.996264)" xlink:href="#CMSY10-0"/>
       <use transform="translate(77.487468 0)scale(0.996264)" xlink:href="#CMR17-49"/>
       <use transform="translate(123.177945 0)scale(0.996264)" xlink:href="#CMR17-48"/>
       <use transform="translate(168.868422 0)scale(0.996264)" xlink:href="#CMMI12-58"/>
       <use transform="translate(195.965599 0)scale(0.996264)" xlink:href="#CMR17-48"/>
      </g>
     </g>
    </g>
    <g id="ytick_2">
     <g id="line2d_11">
      <g>
       <use style="stroke:#000000;stroke-width:0.8;" x="103.104" xlink:href="#m7f5bd5ce00" y="274.32"/>
      </g>
     </g>
     <g id="text_11">
      <!-- $\mathdefault{−7.5}$ -->
      <g transform="translate(75.625177 277.779249)scale(0.1 -0.1)">
       <use transform="scale(0.996264)" xlink:href="#CMSY10-0"/>
       <use transform="translate(77.487468 0)scale(0.996264)" xlink:href="#CMR17-55"/>
       <use transform="translate(123.177945 0)scale(0.996264)" xlink:href="#CMMI12-58"/>
       <use transform="translate(150.275122 0)scale(0.996264)" xlink:href="#CMR17-53"/>
      </g>
     </g>
    </g>
    <g id="ytick_3">
     <g id="line2d_12">
      <g>
       <use style="stroke:#000000;stroke-width:0.8;" x="103.104" xlink:href="#m7f5bd5ce00" y="241.056"/>
      </g>
     </g>
     <g id="text_12">
      <!-- $\mathdefault{−5.0}$ -->
      <g transform="translate(75.625177 244.515249)scale(0.1 -0.1)">
       <use transform="scale(0.996264)" xlink:href="#CMSY10-0"/>
       <use transform="translate(77.487468 0)scale(0.996264)" xlink:href="#CMR17-53"/>
       <use transform="translate(123.177945 0)scale(0.996264)" xlink:href="#CMMI12-58"/>
       <use transform="translate(150.275122 0)scale(0.996264)" xlink:href="#CMR17-48"/>
      </g>
     </g>
    </g>
    <g id="ytick_4">
     <g id="line2d_13">
      <g>
       <use style="stroke:#000000;stroke-width:0.8;" x="103.104" xlink:href="#m7f5bd5ce00" y="207.792"/>
      </g>
     </g>
     <g id="text_13">
      <!-- $\mathdefault{−2.5}$ -->
      <g transform="translate(75.625177 211.251249)scale(0.1 -0.1)">
       <use transform="scale(0.996264)" xlink:href="#CMSY10-0"/>
       <use transform="translate(77.487468 0)scale(0.996264)" xlink:href="#CMR17-50"/>
       <use transform="translate(123.177945 0)scale(0.996264)" xlink:href="#CMMI12-58"/>
       <use transform="translate(150.275122 0)scale(0.996264)" xlink:href="#CMR17-53"/>
      </g>
     </g>
    </g>
    <g id="ytick_5">
     <g id="line2d_14">
      <g>
       <use style="stroke:#000000;stroke-width:0.8;" x="103.104" xlink:href="#m7f5bd5ce00" y="174.528"/>
      </g>
     </g>
     <g id="text_14">
      <!-- $\mathdefault{0.0}$ -->
      <g transform="translate(83.373921 177.987249)scale(0.1 -0.1)">
       <use transform="scale(0.996264)" xlink:href="#CMR17-48"/>
       <use transform="translate(45.690477 0)scale(0.996264)" xlink:href="#CMMI12-58"/>
       <use transform="translate(72.787654 0)scale(0.996264)" xlink:href="#CMR17-48"/>
      </g>
     </g>
    </g>
    <g id="ytick_6">
     <g id="line2d_15">
      <g>
       <use style="stroke:#000000;stroke-width:0.8;" x="103.104" xlink:href="#m7f5bd5ce00" y="141.264"/>
      </g>
     </g>
     <g id="text_15">
      <!-- $\mathdefault{2.5}$ -->
      <g transform="translate(83.373921 144.723249)scale(0.1 -0.1)">
       <use transform="scale(0.996264)" xlink:href="#CMR17-50"/>
       <use transform="translate(45.690477 0)scale(0.996264)" xlink:href="#CMMI12-58"/>
       <use transform="translate(72.787654 0)scale(0.996264)" xlink:href="#CMR17-53"/>
      </g>
     </g>
    </g>
    <g id="ytick_7">
     <g id="line2d_16">
      <g>
       <use style="stroke:#000000;stroke-width:0.8;" x="103.104" xlink:href="#m7f5bd5ce00" y="108"/>
      </g>
     </g>
     <g id="text_16">
      <!-- $\mathdefault{5.0}$ -->
      <g transform="translate(83.373921 111.459249)scale(0.1 -0.1)">
       <use transform="scale(0.996264)" xlink:href="#CMR17-53"/>
       <use transform="translate(45.690477 0)scale(0.996264)" xlink:href="#CMMI12-58"/>
       <use transform="translate(72.787654 0)scale(0.996264)" xlink:href="#CMR17-48"/>
      </g>
     </g>
    </g>
    <g id="ytick_8">
     <g id="line2d_17">
      <g>
       <use style="stroke:#000000;stroke-width:0.8;" x="103.104" xlink:href="#m7f5bd5ce00" y="74.736"/>
      </g>
     </g>
     <g id="text_17">
      <!-- $\mathdefault{7.5}$ -->
      <g transform="translate(83.373921 78.195249)scale(0.1 -0.1)">
       <use transform="scale(0.996264)" xlink:href="#CMR17-55"/>
       <use transform="translate(45.690477 0)scale(0.996264)" xlink:href="#CMMI12-58"/>
       <use transform="translate(72.787654 0)scale(0.996264)" xlink:href="#CMR17-53"/>
      </g>
     </g>
    </g>
    <g id="ytick_9">
     <g id="line2d_18">
      <g>
       <use style="stroke:#000000;stroke-width:0.8;" x="103.104" xlink:href="#m7f5bd5ce00" y="41.472"/>
      </g>
     </g>
     <g id="text_18">
      <!-- $\mathdefault{10.0}$ -->
      <g transform="translate(78.392586 44.931249)scale(0.1 -0.1)">
       <use transform="scale(0.996264)" xlink:href="#CMR17-49"/>
       <use transform="translate(45.690477 0)scale(0.996264)" xlink:href="#CMR17-48"/>
       <use transform="translate(91.380954 0)scale(0.996264)" xlink:href="#CMMI12-58"/>
       <use transform="translate(118.478131 0)scale(0.996264)" xlink:href="#CMR17-48"/>
      </g>
     </g>
    </g>
   </g>
   <g id="patch_3">
    <path d="M 103.104 307.584  L 103.104 41.472  " style="fill:none;stroke:#000000;stroke-linecap:square;stroke-linejoin:miter;stroke-width:0.8;"/>
   </g>
   <g id="patch_4">
    <path d="M 369.216 307.584  L 369.216 41.472  " style="fill:none;stroke:#000000;stroke-linecap:square;stroke-linejoin:miter;stroke-width:0.8;"/>
   </g>
   <g id="patch_5">
    <path d="M 103.104 307.584  L 369.216 307.584  " style="fill:none;stroke:#000000;stroke-linecap:square;stroke-linejoin:miter;stroke-width:0.8;"/>
   </g>
   <g id="patch_6">
    <path d="M 103.104 41.472  L 369.216 41.472  " style="fill:none;stroke:#000000;stroke-linecap:square;stroke-linejoin:miter;stroke-width:0.8;"/>
   </g>
   <g id="patch_7">
    <path d="M 245.961604 168.642111  Q 252.791529 160.221188 258.917179 152.668597  " style="fill:none;stroke:#000000;stroke-linecap:round;"/>
    <path d="M 253.214974 155.254106  L 258.917179 152.668597  L 257.564263 158.781666  " style="fill:none;stroke:#000000;stroke-linecap:round;"/>
   </g>
   <g id="text_19">
    <!-- $Text$ -->
    <g transform="translate(221.698286 184.213876)scale(0.14 -0.14)">
     <defs>
      <path d="M 41.703125 60.71875  C 42.296875 63.09375 42.5 64 44 64.390625  C 44.796875 64.59375 48.09375 64.59375 50.203125 64.59375  C 60.203125 64.59375 64.90625 64.203125 64.90625 56.4375  C 64.90625 54.9375 64.5 51.15625 63.90625 47.46875  L 63.796875 46.28125  C 63.796875 45.890625 64.203125 45.28125 64.796875 45.28125  C 65.796875 45.28125 65.796875 45.78125 66.09375 47.375  L 69 64.984375  C 69.203125 65.890625 69.203125 66.09375 69.203125 66.390625  C 69.203125 67.484375 68.59375 67.484375 66.59375 67.484375  L 11.90625 67.484375  C 9.59375 67.484375 9.5 67.390625 8.90625 65.59375  L 2.796875 47.671875  C 2.703125 47.46875 2.40625 46.375 2.40625 46.28125  C 2.40625 45.78125 2.796875 45.28125 3.40625 45.28125  C 4.203125 45.28125 4.40625 45.6875 4.796875 46.984375  C 9 59.015625 11.09375 64.59375 24.40625 64.59375  L 31.09375 64.59375  C 33.5 64.59375 34.5 64.59375 34.5 63.5  C 34.5 63.203125 34.5 63 34 61.203125  L 20.59375 7.765625  C 19.59375 3.890625 19.40625 2.890625 8.796875 2.890625  C 6.296875 2.890625 5.59375 2.890625 5.59375 1  C 5.59375 0 6.703125 0 7.203125 0  C 9.703125 0 12.296875 0.1875 14.796875 0.1875  L 30.40625 0.1875  C 32.90625 0.1875 35.59375 0 38.09375 0  C 39.203125 0 40.203125 0 40.203125 1.890625  C 40.203125 2.890625 39.5 2.890625 36.90625 2.890625  C 27.90625 2.890625 27.90625 3.78125 27.90625 5.28125  C 27.90625 5.375 27.90625 6.078125 28.296875 7.671875  z " id="CMMI12-84"/>
      <path d="M 17.90625 23  C 20.59375 23 27.40625 23.1875 32.203125 25  C 39.796875 27.90625 40.5 33.75 40.5 35.546875  C 40.5 39.984375 36.703125 44 30.09375 44  C 19.59375 44 4.5 34.453125 4.5 16.65625  C 4.5 6.25 10.5 -1 19.59375 -1  C 33.203125 -1 41.796875 9.515625 41.796875 10.796875  C 41.796875 11.390625 41.203125 11.890625 40.796875 11.890625  C 40.5 11.890625 40.40625 11.796875 39.5 10.90625  C 33.09375 2.484375 23.59375 1 19.796875 1  C 14.09375 1 11.09375 5.453125 11.09375 12.78125  C 11.09375 14.171875 11.09375 16.65625 12.59375 23  z M 13.09375 25  C 17.40625 40.484375 26.90625 41.984375 30.09375 41.984375  C 34.5 41.984375 37.5 39.375 37.5 35.546875  C 37.5 25 21.5 25 17.296875 25  z " id="CMMI12-101"/>
      <path d="M 47.40625 41  C 44.203125 40.390625 43 37.984375 43 36.09375  C 43 33.6875 44.90625 32.890625 46.296875 32.890625  C 49.296875 32.890625 51.40625 35.484375 51.40625 38.1875  C 51.40625 42.09375 46.59375 44 42.40625 44  C 36.296875 44 32.90625 38.296875 32 36.390625  C 29.703125 43.59375 23.5 44 21.703125 44  C 11.5 44 6.09375 31.140625 6.09375 28.890625  C 6.09375 28.484375 6.5 27.96875 7.203125 27.96875  C 8 27.96875 8.203125 28.578125 8.40625 28.984375  C 11.796875 40.1875 18.5 41.984375 21.40625 41.984375  C 25.90625 41.984375 26.796875 38.09375 26.796875 35.6875  C 26.796875 33.484375 26.203125 31.140625 25 26.21875  L 21.59375 12.15625  C 20.09375 6.09375 17.203125 1 11.90625 1  C 11.40625 1 8.90625 1 6.796875 1.96875  C 10.40625 2.59375 11.203125 5.59375 11.203125 6.796875  C 11.203125 8.796875 9.703125 10 7.796875 10  C 5.40625 10 2.796875 7.890625 2.796875 4.6875  C 2.796875 0.890625 7.5 -1 11.796875 -1  C 16.59375 -1 20 2.390625 22.09375 6.484375  C 23.703125 1 28.703125 -1 32.40625 -1  C 42.59375 -1 48 11.734375 48 14  C 48 14.515625 47.59375 14.921875 47 14.921875  C 46.09375 14.921875 46 14.40625 45.703125 13.59375  C 43 4.6875 37.203125 1 32.703125 1  C 29.203125 1 27.296875 3.1875 27.296875 7.296875  C 27.296875 9.484375 27.703125 11.125 29.296875 17.90625  L 32.796875 31.859375  C 34.296875 37.890625 37.703125 41.984375 42.296875 41.984375  C 42.5 41.984375 45.296875 41.984375 47.40625 41  z " id="CMMI12-120"/>
      <path d="M 20.09375 40.09375  L 29.296875 40.09375  C 31.203125 40.09375 32.203125 40.09375 32.203125 41.890625  C 32.203125 43 31.59375 43 29.59375 43  L 20.796875 43  L 24.5 57.25  C 24.90625 58.625 24.90625 58.8125 24.90625 59.5  C 24.90625 61.09375 23.59375 62 22.296875 62  C 21.5 62 19.203125 61.6875 18.40625 58.53125  L 14.5 43  L 5.09375 43  C 3.09375 43 2.203125 43 2.203125 41.09375  C 2.203125 40.09375 2.90625 40.09375 4.796875 40.09375  L 13.703125 40.09375  L 7.09375 13.765625  C 6.296875 10.265625 6 9.265625 6 7.96875  C 6 3.28125 9.296875 -1 14.90625 -1  C 25 -1 30.40625 13.5625 30.40625 14.265625  C 30.40625 14.859375 30 15.15625 29.40625 15.15625  C 29.203125 15.15625 28.796875 15.15625 28.59375 14.75  C 28.5 14.65625 28.40625 14.5625 27.703125 12.96875  C 25.59375 7.96875 21 1 15.203125 1  C 12.203125 1 12 3.484375 12 5.6875  C 12 5.78125 12 7.671875 12.296875 8.875  z " id="CMMI12-116"/>
     </defs>
     <use transform="scale(0.996264)" xlink:href="#CMMI12-84"/>
     <use transform="translate(70.723632 0)scale(0.996264)" xlink:href="#CMMI12-101"/>
     <use transform="translate(115.935633 0)scale(0.996264)" xlink:href="#CMMI12-120"/>
     <use transform="translate(171.369693 0)scale(0.996264)" xlink:href="#CMMI12-116"/>
    </g>
   </g>
  </g>
 </g>
</svg>