<svg xmlns="http://www.w3.org/2000/svg" xmlns:xlink="http://www.w3.org/1999/xlink" height="345.6pt" version="1.1" viewBox="0 0 460.8 345.6" width="460.8pt">
 <metadata>
  <rdf:RDF xmlns:cc="http://creativecommons.org/ns#" xmlns:dc="http://purl.org/dc/elements/1.1/" xmlns:rdf="http://www.w3.org/1999/02/22-rdf-syntax-ns#">
   <cc:Work>
    <dc:type rdf:resource="http://purl.org/dc/dcmitype/StillImage"/>
    <dc:date>2020-08-10T10:21:16.109445</dc:date>
    <dc:format>image/svg+xml</dc:format>
    <dc:creator>
     <cc:Agent>
      <dc:title>Matplotlib v3.3.0, https://matplotlib.org/</dc:title>
     </cc:Agent>
    </dc:creator>
   </cc:Work>
  </rdf:RDF>
 </metadata>
 <defs>
  <style type="text/css">*{stroke-linecap:butt;stroke-linejoin:round;}</style>
 </defs>
 <g id="figure_1">
  <g id="patch_1">
   <path d="M 0 345.6  L 460.8 345.6  L 460.8 0  L 0 0  z " style="fill:#ffffff;"/>
  </g>
  <g id="axes_1">
   <g id="patch_2">
    <path clip-path="url(#p27d743fcee)" d="M 77.44 214.208  L 77.44 199.328  L 107.2 199.328  L 166.72 179.488  L 166.72 184.716299  L 114.959839 201.969686  L 114.959839 253.888  L 110.991839 253.888  L 110.991839 214.208  z " style="fill:url(#hfa4c95fbb0);stroke:#0000ff;stroke-linejoin:miter;stroke-width:2;"/>
   </g>
   <g id="patch_3">
    <path clip-path="url(#p27d743fcee)" d="M 154.639839 253.888  L 154.639839 209.248  L 212.352 187.754667  L 311.552 187.754667  L 390.912 199.328  L 390.912 214.208  L 158.607839 214.208  L 158.607839 253.888  z " style="fill:url(#hfa4c95fbb0);stroke:#0000ff;stroke-linejoin:miter;stroke-width:2;"/>
   </g>
   <g id="patch_4">
    <path clip-path="url(#p27d743fcee)" d="M 77.44 134.848  L 390.912 134.848  L 390.912 149.728  L 311.552 161.301333  L 212.352 161.301333  L 154.639839 139.808  L 114.959839 139.808  L 115.669844 147.322982  L 167.430005 164.576369  L 167.430005 169.804668  L 107.2 149.728  L 77.44 149.728  z " style="fill:url(#hfa4c95fbb0);stroke:#0000ff;stroke-linejoin:miter;stroke-width:2;"/>
   </g>
   <g id="patch_5">
    <path clip-path="url(#p27d743fcee)" d="M 390.912 124.928  L 384.216 127.16  L 384.216 124.93792  L 77.44 124.93792  L 77.44 124.91808  L 384.216 124.91808  L 384.216 122.696  z " style="stroke:#000000;stroke-linejoin:miter;"/>
   </g>
   <g id="patch_6">
    <path clip-path="url(#p27d743fcee)" d="M 77.44 124.928  L 84.136 122.696  L 84.136 124.91808  L 390.912 124.91808  L 390.912 124.93792  L 84.136 124.93792  L 84.136 127.16  z " style="stroke:#000000;stroke-linejoin:miter;"/>
   </g>
   <g id="patch_7">
    <path clip-path="url(#p27d743fcee)" d="M 390.912 243.968  L 384.216 246.2  L 384.216 243.97792  L 311.552 243.97792  L 311.552 243.95808  L 384.216 243.95808  L 384.216 241.736  z " style="stroke:#000000;stroke-linejoin:miter;"/>
   </g>
   <g id="patch_8">
    <path clip-path="url(#p27d743fcee)" d="M 311.552 243.968  L 318.248 241.736  L 318.248 243.95808  L 390.912 243.95808  L 390.912 243.97792  L 318.248 243.97792  L 318.248 246.2  z " style="stroke:#000000;stroke-linejoin:miter;"/>
   </g>
   <g id="patch_9">
    <path clip-path="url(#p27d743fcee)" d="M 311.552 243.968  L 304.856 246.2  L 304.856 243.97792  L 212.352 243.97792  L 212.352 243.95808  L 304.856 243.95808  L 304.856 241.736  z " style="stroke:#000000;stroke-linejoin:miter;"/>
   </g>
   <g id="patch_10">
    <path clip-path="url(#p27d743fcee)" d="M 212.352 243.968  L 219.048 241.736  L 219.048 243.95808  L 311.552 243.95808  L 311.552 243.97792  L 219.048 243.97792  L 219.048 246.2  z " style="stroke:#000000;stroke-linejoin:miter;"/>
   </g>
   <g id="patch_11">
    <path clip-path="url(#p27d743fcee)" d="M 212.352 243.968  L 205.656 246.2  L 205.656 243.97792  L 154.639839 243.97792  L 154.639839 243.95808  L 205.656 243.95808  L 205.656 241.736  z " style="stroke:#000000;stroke-linejoin:miter;"/>
   </g>
   <g id="patch_12">
    <path clip-path="url(#p27d743fcee)" d="M 154.639839 243.968  L 161.335839 241.736  L 161.335839 243.95808  L 212.352 243.95808  L 212.352 243.97792  L 161.335839 243.97792  L 161.335839 246.2  z " style="stroke:#000000;stroke-linejoin:miter;"/>
   </g>
   <g id="patch_13">
    <path clip-path="url(#p27d743fcee)" d="M 154.639839 243.968  L 147.943839 246.2  L 147.943839 243.97792  L 114.959839 243.97792  L 114.959839 243.95808  L 147.943839 243.95808  L 147.943839 241.736  z " style="stroke:#000000;stroke-linejoin:miter;"/>
   </g>
   <g id="patch_14">
    <path clip-path="url(#p27d743fcee)" d="M 114.959839 243.968  L 121.655839 241.736  L 121.655839 243.95808  L 154.639839 243.95808  L 154.639839 243.97792  L 121.655839 243.97792  L 121.655839 246.2  z " style="stroke:#000000;stroke-linejoin:miter;"/>
   </g>
   <g id="patch_15">
    <path clip-path="url(#p27d743fcee)" d="M 107.2 189.408  L 100.504 191.64  L 100.504 189.41792  L 77.44 189.41792  L 77.44 189.39808  L 100.504 189.39808  L 100.504 187.176  z " style="stroke:#000000;stroke-linejoin:miter;"/>
   </g>
   <g id="patch_16">
    <path clip-path="url(#p27d743fcee)" d="M 77.44 189.408  L 84.136 187.176  L 84.136 189.39808  L 107.2 189.39808  L 107.2 189.41792  L 84.136 189.41792  L 84.136 191.64  z " style="stroke:#000000;stroke-linejoin:miter;"/>
   </g>
   <g id="patch_17">
    <path clip-path="url(#p27d743fcee)" d="M 107.2 199.328  L 104.968 192.632  L 107.19008 192.632  L 107.19008 149.728  L 107.20992 149.728  L 107.20992 192.632  L 109.432 192.632  z " style="stroke:#000000;stroke-linejoin:miter;"/>
   </g>
   <g id="patch_18">
    <path clip-path="url(#p27d743fcee)" d="M 107.2 149.728  L 109.432 156.424  L 107.20992 156.424  L 107.20992 199.328  L 107.19008 199.328  L 107.19008 156.424  L 104.968 156.424  z " style="stroke:#000000;stroke-linejoin:miter;"/>
   </g>
   <g id="patch_19">
    <path clip-path="url(#p27d743fcee)" d="M 400.832 199.328  L 398.6 192.632  L 400.82208 192.632  L 400.82208 149.728  L 400.84192 149.728  L 400.84192 192.632  L 403.064 192.632  z " style="stroke:#000000;stroke-linejoin:miter;"/>
   </g>
   <g id="patch_20">
    <path clip-path="url(#p27d743fcee)" d="M 400.832 149.728  L 403.064 156.424  L 400.84192 156.424  L 400.84192 199.328  L 400.82208 199.328  L 400.82208 156.424  L 398.6 156.424  z " style="stroke:#000000;stroke-linejoin:miter;"/>
   </g>
   <g id="patch_21">
    <path clip-path="url(#p27d743fcee)" d="M 212.352 187.754667  L 210.12 181.058667  L 212.34208 181.058667  L 212.34208 161.301333  L 212.36192 161.301333  L 212.36192 181.058667  L 214.584 181.058667  z " style="stroke:#000000;stroke-linejoin:miter;"/>
   </g>
   <g id="patch_22">
    <path clip-path="url(#p27d743fcee)" d="M 212.352 161.301333  L 214.584 167.997333  L 212.36192 167.997333  L 212.36192 187.754667  L 212.34208 187.754667  L 212.34208 167.997333  L 210.12 167.997333  z " style="stroke:#000000;stroke-linejoin:miter;"/>
   </g>
   <g id="patch_23">
    <path clip-path="url(#p27d743fcee)" d="M 67.52 214.208  L 65.288 207.512  L 67.51008 207.512  L 67.51008 134.848  L 67.52992 134.848  L 67.52992 207.512  L 69.752 207.512  z " style="stroke:#000000;stroke-linejoin:miter;"/>
   </g>
   <g id="patch_24">
    <path clip-path="url(#p27d743fcee)" d="M 67.52 134.848  L 69.752 141.544  L 67.52992 141.544  L 67.52992 214.208  L 67.51008 214.208  L 67.51008 141.544  L 65.288 141.544  z " style="stroke:#000000;stroke-linejoin:miter;"/>
   </g>
   <g id="patch_25">
    <path clip-path="url(#p27d743fcee)" d="M 176.64 179.488  L 174.903628 172.64671  L 177.119759 172.809202  L 177.340112 169.803943  L 177.359899 169.805394  L 177.139546 172.810653  L 179.355677 172.973145  z " style="stroke:#000000;stroke-linejoin:miter;"/>
   </g>
   <g id="patch_26">
    <path clip-path="url(#p27d743fcee)" d="M 177.350005 169.804668  L 179.086377 176.645959  L 176.870246 176.483467  L 176.649893 179.488725  L 176.630107 179.487275  L 176.850459 176.482016  L 174.634329 176.319524  z " style="stroke:#000000;stroke-linejoin:miter;"/>
   </g>
   <g id="patch_27">
    <path clip-path="url(#p27d743fcee)" d="M 154.639839 209.248  L 152.407839 202.552  L 154.629919 202.552  L 154.629919 139.808  L 154.649759 139.808  L 154.649759 202.552  L 156.871839 202.552  z " style="stroke:#000000;stroke-linejoin:miter;"/>
   </g>
   <g id="patch_28">
    <path clip-path="url(#p27d743fcee)" d="M 154.639839 139.808  L 156.871839 146.504  L 154.649759 146.504  L 154.649759 209.248  L 154.629919 209.248  L 154.629919 146.504  L 152.407839 146.504  z " style="stroke:#000000;stroke-linejoin:miter;"/>
   </g>
   <g id="line2d_1">
    <path clip-path="url(#p27d743fcee)" d="M 390.912 124.928  L 77.44 124.928  " style="fill:none;stroke:#000000;stroke-linecap:square;"/>
   </g>
   <g id="line2d_2">
    <path clip-path="url(#p27d743fcee)" d="M 390.912 243.968  L 311.552 243.968  " style="fill:none;stroke:#000000;stroke-linecap:square;"/>
   </g>
   <g id="line2d_3">
    <path clip-path="url(#p27d743fcee)" d="M 311.552 243.968  L 212.352 243.968  " style="fill:none;stroke:#000000;stroke-linecap:square;"/>
   </g>
   <g id="line2d_4">
    <path clip-path="url(#p27d743fcee)" d="M 212.352 243.968  L 154.639839 243.968  " style="fill:none;stroke:#000000;stroke-linecap:square;"/>
   </g>
   <g id="line2d_5">
    <path clip-path="url(#p27d743fcee)" d="M 154.639839 243.968  L 114.959839 243.968  " style="fill:none;stroke:#000000;stroke-linecap:square;"/>
   </g>
   <g id="line2d_6">
    <path clip-path="url(#p27d743fcee)" d="M 107.2 189.408  L 77.44 189.408  " style="fill:none;stroke:#000000;stroke-linecap:square;"/>
   </g>
   <g id="line2d_7">
    <path clip-path="url(#p27d743fcee)" d="M 107.2 199.328  L 107.2 149.728  " style="fill:none;stroke:#000000;stroke-linecap:square;"/>
   </g>
   <g id="line2d_8">
    <path clip-path="url(#p27d743fcee)" d="M 400.832 199.328  L 400.832 149.728  " style="fill:none;stroke:#000000;stroke-linecap:square;"/>
   </g>
   <g id="line2d_9">
    <path clip-path="url(#p27d743fcee)" d="M 212.352 187.754667  L 212.352 161.301333  " style="fill:none;stroke:#000000;stroke-linecap:square;"/>
   </g>
   <g id="line2d_10">
    <path clip-path="url(#p27d743fcee)" d="M 67.52 214.208  L 67.52 134.848  " style="fill:none;stroke:#000000;stroke-linecap:square;"/>
   </g>
   <g id="line2d_11">
    <path clip-path="url(#p27d743fcee)" d="M 176.64 179.488  L 177.350005 169.804668  " style="fill:none;stroke:#000000;stroke-linecap:square;"/>
   </g>
   <g id="line2d_12">
    <path clip-path="url(#p27d743fcee)" d="M 154.639839 209.248  L 154.639839 139.808  " style="fill:none;stroke:#000000;stroke-linecap:square;"/>
   </g>
   <g id="text_1">
    <!-- $L\textsubscript{jp}$ -->
    <g transform="translate(225.601389 118.976)scale(0.14 -0.14)">
     <defs>
      <path d="M 36.703125 60.3125  C 37.59375 64.09375 37.90625 65.09375 46.703125 65.09375  C 49.40625 65.09375 50.09375 65.09375 50.09375 66.984375  C 50.09375 68 49 68 48.59375 68  C 46.59375 68 44.296875 67.796875 42.296875 67.796875  L 28.90625 67.796875  C 27 67.796875 24.796875 68 22.90625 68  C 22.09375 68 21 68 21 66.09375  C 21 65.09375 21.90625 65.09375 23.40625 65.09375  C 29.5 65.09375 29.5 64.296875 29.5 63.203125  C 29.5 63 29.5 62.40625 29.09375 60.90625  L 15.59375 7.375  C 14.703125 3.890625 14.5 2.890625 7.5 2.890625  C 5.59375 2.890625 4.59375 2.890625 4.59375 1.09375  C 4.59375 0 5.203125 0 7.203125 0  L 52 0  C 54.203125 0 54.296875 0.09375 55 1.890625  L 62.703125 23.09375  C 62.90625 23.59375 63.09375 24.1875 63.09375 24.484375  C 63.09375 25.078125 62.59375 25.484375 62.09375 25.484375  C 62 25.484375 61.5 25.484375 61.296875 25.078125  C 61.09375 24.984375 61.09375 24.78125 60.296875 22.890625  C 57.09375 14.140625 52.59375 2.890625 35.703125 2.890625  L 26.09375 2.890625  C 24.703125 2.890625 24.5 2.890625 23.90625 2.984375  C 22.796875 3.09375 22.703125 3.296875 22.703125 4.09375  C 22.703125 4.78125 22.90625 5.375 23.09375 6.28125  z " id="CMMI12-76"/>
      <path d="M 17.40625 66  L 9 66  L 9 57.59375  L 17.40625 57.59375  z M -5.796875 -16.609375  C -2.609375 -18.609375 1.296875 -20 5.5 -20  C 11.796875 -20 17.40625 -14.609375 17.40625 -5.75  L 17.40625 43  L 10 43  L 10 -6.640625  C 10 -12.71875 5.40625 -13.609375 2.796875 -13.609375  C 0.59375 -13.609375 -2 -12.90625 -4.296875 -10.53125  z " id="CMSS17-106"/>
      <path d="M 15.09375 4.296875  C 18.40625 1.09375 22.90625 -1 27.703125 -1  C 37 -1 45 8.640625 45 21.59375  C 45 33.546875 39 44 30.40625 44  C 25.40625 44 19.40625 42.1875 14.90625 38.59375  L 14.90625 43.1875  L 7.5 43.1875  L 7.5 -20  L 15.09375 -20  z M 15.09375 32.625  C 15.90625 33.84375 19.296875 37.6875 24.796875 37.6875  C 31.796875 37.6875 37.40625 30.40625 37.40625 21.59375  C 37.40625 11.578125 30.59375 5.09375 23.90625 5.09375  C 21.90625 5.09375 19.796875 5.59375 17.796875 7.3125  C 15.09375 9.75 15.09375 11.265625 15.09375 12.6875  z " id="CMSS17-112"/>
     </defs>
     <use transform="scale(0.996264)" xlink:href="#CMMI12-76"/>
     <use transform="translate(66.370875 -14.943915)scale(0.697382)" xlink:href="#CMSS17-106"/>
     <use transform="translate(83.718952 -14.943915)scale(0.697382)" xlink:href="#CMSS17-112"/>
    </g>
   </g>
   <g id="text_2">
    <!-- $L\textsubscript{d}$ -->
    <g transform="translate(343.994561 238.016)scale(0.14 -0.14)">
     <defs>
      <path d="M 40.796875 69  L 33.40625 69  L 33.40625 38.984375  C 30.296875 41.59375 25.203125 44 19.59375 44  C 10.5 44 3.296875 34.046875 3.296875 21.484375  C 3.296875 8.9375 10.40625 -1 19.296875 -1  C 26.203125 -1 30.796875 2.6875 33.203125 4.796875  L 33.203125 -0.203125  L 40.796875 -0.203125  z M 33.203125 13.296875  C 33.203125 11.875 33.203125 10.359375 30.09375 7.625  C 28.09375 5.90625 25.703125 5.09375 23.40625 5.09375  C 18 5.09375 10.90625 9.140625 10.90625 21.390625  C 10.90625 34.140625 18.90625 37.890625 24.40625 37.890625  C 28.09375 37.890625 31.09375 36.0625 33.203125 33.03125  z " id="CMSS17-100"/>
     </defs>
     <use transform="scale(0.996264)" xlink:href="#CMMI12-76"/>
     <use transform="translate(66.370875 -14.943915)scale(0.697382)" xlink:href="#CMSS17-100"/>
    </g>
   </g>
   <g id="text_3">
    <!-- $L\textsubscript{t}$ -->
    <g transform="translate(255.49426 238.016)scale(0.14 -0.14)">
     <defs>
      <path d="M 16.703125 37.1875  L 29.703125 37.1875  L 29.703125 43  L 16.703125 43  L 16.703125 55  L 9.59375 55  L 9.59375 43  L 1.703125 43  L 1.703125 37.1875  L 9.40625 37.1875  L 9.40625 11.734375  C 9.40625 6 10.703125 -1 17.296875 -1  C 22.296875 -1 26.90625 0.390625 31.296875 2.6875  L 29.703125 8.609375  C 27.296875 6.5 24.40625 5.296875 21.296875 5.296875  C 16.90625 5.296875 16.703125 10.921875 16.703125 13.4375  z " id="CMSS17-116"/>
     </defs>
     <use transform="scale(0.996264)" xlink:href="#CMMI12-76"/>
     <use transform="translate(66.370875 -14.943915)scale(0.697382)" xlink:href="#CMSS17-116"/>
    </g>
   </g>
   <g id="text_4">
    <!-- $L\textsubscript{cm}$ -->
    <g transform="translate(172.634915 238.016)scale(0.14 -0.14)">
     <defs>
      <path d="M 38.5 39.6875  C 38.5 40.390625 33.90625 42.390625 32.703125 42.796875  C 29.40625 44 25.203125 44 24.09375 44  C 11.09375 44 3.296875 32.6875 3.296875 21.296875  C 3.296875 9.296875 12 -1 23.703125 -1  C 30.40625 -1 35.203125 1.1875 39.09375 3.796875  L 38.5 10.390625  C 34.203125 7.09375 29.203125 5.296875 23.796875 5.296875  C 16 5.296875 10.90625 12.09375 10.90625 21.390625  C 10.90625 28.59375 14.203125 37.6875 24.203125 37.6875  C 29.703125 37.6875 32.796875 36.59375 37.40625 33.484375  z " id="CMSS17-99"/>
      <path d="M 67 29.34375  C 67 36.078125 65.296875 44 54.09375 44  C 46.59375 44 42.09375 39.296875 40.09375 36.375  C 38.296875 41.6875 34.09375 44 28.09375 44  C 21.296875 44 17 40.09375 14.703125 37.28125  L 14.703125 43.484375  L 7.40625 43.484375  L 7.40625 0  L 15 0  L 15 24.3125  C 15 30.25 17.203125 37.890625 24.296875 37.890625  C 33.40625 37.890625 33.40625 31.453125 33.40625 28.53125  L 33.40625 0  L 41 0  L 41 24.3125  C 41 30.25 43.203125 37.890625 50.296875 37.890625  C 59.40625 37.890625 59.40625 31.453125 59.40625 28.53125  L 59.40625 0  L 67 0  z " id="CMSS17-109"/>
     </defs>
     <use transform="scale(0.996264)" xlink:href="#CMMI12-76"/>
     <use transform="translate(66.370875 -14.943915)scale(0.697382)" xlink:href="#CMSS17-99"/>
     <use transform="translate(95.517922 -14.943915)scale(0.697382)" xlink:href="#CMSS17-109"/>
    </g>
   </g>
   <g id="text_5">
    <!-- $L\textsubscript{mix}$ -->
    <g transform="translate(122.658168 238.016)scale(0.14 -0.14)">
     <defs>
      <path d="M 15.296875 66  L 6.90625 66  L 6.90625 57.59375  L 15.296875 57.59375  z M 14.796875 43  L 7.40625 43  L 7.40625 0  L 14.796875 0  z " id="CMSS17-105"/>
      <path d="M 24.796875 22.1875  L 41.5 43  L 32.796875 43  L 21.296875 27.890625  L 9.40625 43  L 0.5 43  L 17.796875 22.1875  L 0 0  L 8.796875 0  L 21.296875 17.59375  L 34.296875 0  L 43.09375 0  z " id="CMSS17-120"/>
     </defs>
     <use transform="scale(0.996264)" xlink:href="#CMMI12-76"/>
     <use transform="translate(66.370875 -14.943915)scale(0.697382)" xlink:href="#CMSS17-109"/>
     <use transform="translate(118.331115 -14.943915)scale(0.697382)" xlink:href="#CMSS17-105"/>
     <use transform="translate(133.857547 -14.943915)scale(0.697382)" xlink:href="#CMSS17-120"/>
    </g>
   </g>
   <g id="text_6">
    <!-- $L\textsubscript{in}$ -->
    <g transform="translate(83.884759 183.456)scale(0.14 -0.14)">
     <defs>
      <path d="M 40.90625 29.34375  C 40.90625 35.671875 39.40625 44 28.09375 44  C 21.703125 44 17.5 40.6875 14.703125 37.28125  L 14.703125 43.484375  L 7.40625 43.484375  L 7.40625 0  L 15 0  L 15 24.3125  C 15 30.65625 17.40625 37.890625 24.203125 37.890625  C 33 37.890625 33.296875 31.953125 33.296875 28.53125  L 33.296875 0  L 40.90625 0  z " id="CMSS17-110"/>
     </defs>
     <use transform="scale(0.996264)" xlink:href="#CMMI12-76"/>
     <use transform="translate(66.370875 -14.943915)scale(0.697382)" xlink:href="#CMSS17-105"/>
     <use transform="translate(81.897307 -14.943915)scale(0.697382)" xlink:href="#CMSS17-110"/>
    </g>
   </g>
   <g id="text_7">
    <!-- $D\textsubscript{in}$ -->
    <g transform="translate(93.854888 174.528)scale(0.14 -0.14)">
     <defs>
      <path d="M 15.703125 7.375  C 14.796875 3.890625 14.59375 2.890625 7.59375 2.890625  C 5.703125 2.890625 4.703125 2.890625 4.703125 1.09375  C 4.703125 0 5.296875 0 7.296875 0  L 39 0  C 59.203125 0 78.90625 20.8125 78.90625 43  C 78.90625 57.328125 70.296875 68 56 68  L 23.90625 68  C 22 68 21.09375 68 21.09375 66.09375  C 21.09375 65.09375 22 65.09375 23.5 65.09375  C 29.59375 65.09375 29.59375 64.296875 29.59375 63.203125  C 29.59375 63 29.59375 62.40625 29.203125 60.90625  z M 36.796875 61.203125  C 37.703125 64.890625 38.09375 65.09375 42 65.09375  L 53 65.09375  C 62.40625 65.09375 71 60.015625 71 46.28125  C 71 41.3125 69 23.984375 59.296875 13.046875  C 56.5 9.765625 48.90625 2.890625 37.40625 2.890625  L 26 2.890625  C 24.59375 2.890625 24.40625 2.890625 23.796875 2.984375  C 22.703125 3.09375 22.59375 3.296875 22.59375 4.09375  C 22.59375 4.78125 22.796875 5.375 23 6.28125  z " id="CMMI12-68"/>
     </defs>
     <use transform="scale(0.996264)" xlink:href="#CMMI12-68"/>
     <use transform="translate(83.703948 -14.943915)scale(0.697382)" xlink:href="#CMSS17-105"/>
     <use transform="translate(99.230379 -14.943915)scale(0.697382)" xlink:href="#CMSS17-110"/>
    </g>
   </g>
   <g id="text_8">
    <!-- $D\textsubscript{out}$ -->
    <g transform="translate(406.784 174.528)scale(0.14 -0.14)">
     <defs>
      <path d="M 44.203125 21.1875  C 44.203125 33.984375 34.703125 44 23.5 44  C 12 44 2.703125 33.6875 2.703125 21.1875  C 2.703125 8.5 12.296875 -1 23.40625 -1  C 34.796875 -1 44.203125 8.796875 44.203125 21.1875  z M 23.5 5.296875  C 16.40625 5.296875 10.296875 11.09375 10.296875 21.984375  C 10.296875 33.59375 17.40625 37.890625 23.40625 37.890625  C 29.90625 37.890625 36.59375 33.1875 36.59375 21.984375  C 36.59375 10.6875 30.09375 5.296875 23.5 5.296875  z " id="CMSS17-111"/>
      <path d="M 40.90625 43  L 33.296875 43  L 33.296875 15.25  C 33.296875 7.8125 27.90625 4.796875 22.203125 4.796875  C 15.59375 4.796875 15 7 15 11.125  L 15 43  L 7.40625 43  L 7.40625 10.625  C 7.40625 2.796875 10.09375 -1 17 -1  C 20.40625 -1 28.09375 -0.203125 33.5 4.796875  L 33.5 -0.203125  L 40.90625 -0.203125  z " id="CMSS17-117"/>
     </defs>
     <use transform="scale(0.996264)" xlink:href="#CMMI12-68"/>
     <use transform="translate(83.703948 -14.943915)scale(0.697382)" xlink:href="#CMSS17-111"/>
     <use transform="translate(116.494329 -14.943915)scale(0.697382)" xlink:href="#CMSS17-117"/>
     <use transform="translate(150.237634 -14.943915)scale(0.697382)" xlink:href="#CMSS17-116"/>
    </g>
   </g>
   <g id="text_9">
    <!-- $D\textsubscript{t}$ -->
    <g transform="translate(218.304 174.528)scale(0.14 -0.14)">
     <use transform="scale(0.996264)" xlink:href="#CMMI12-68"/>
     <use transform="translate(83.703948 -14.943915)scale(0.697382)" xlink:href="#CMSS17-116"/>
    </g>
   </g>
   <g id="text_10">
    <!-- $D$ -->
    <g transform="translate(62.132808 174.528)scale(0.14 -0.14)">
     <use transform="scale(0.996264)" xlink:href="#CMMI12-68"/>
    </g>
   </g>
   <g id="text_11">
    <!-- $D\textsubscript{n}$ -->
    <g transform="translate(182.931067 175.081581)scale(0.14 -0.14)">
     <use transform="scale(0.996264)" xlink:href="#CMMI12-68"/>
     <use transform="translate(83.703948 -14.943915)scale(0.697382)" xlink:href="#CMSS17-110"/>
    </g>
   </g>
   <g id="text_12">
    <!-- $D\textsubscript{mix}$ -->
    <g transform="translate(133.881867 174.528)scale(0.14 -0.14)">
     <use transform="scale(0.996264)" xlink:href="#CMMI12-68"/>
     <use transform="translate(83.703948 -14.943915)scale(0.697382)" xlink:href="#CMSS17-109"/>
     <use transform="translate(135.664187 -14.943915)scale(0.697382)" xlink:href="#CMSS17-105"/>
     <use transform="translate(151.190619 -14.943915)scale(0.697382)" xlink:href="#CMSS17-120"/>
    </g>
   </g>
  </g>
 </g>
 <defs>
  <clipPath id="p27d743fcee">
   <rect height="198.4" width="357.12" x="57.6" y="75.328"/>
  </clipPath>
 </defs>
 <defs>
  <pattern height="72" id="hfa4c95fbb0" patternUnits="userSpaceOnUse" width="72" x="0" y="0">
   <rect fill="#ffffff" height="73" width="73" x="0" y="0"/>
   <path d="M -36 36  L 36 -36  M -24 48  L 48 -24  M -12 60  L 60 -12  M 0 72  L 72 0  M 12 84  L 84 12  M 24 96  L 96 24  M 36 108  L 108 36  " style="fill:#0000ff;stroke:#0000ff;stroke-linecap:butt;stroke-linejoin:miter;stroke-width:1.0;"/>
  </pattern>
 </defs>
</svg>