<svg height="345.6pt" version="1.1" viewBox="0 0 460.8 345.6" width="460.8pt" xmlns="http://www.w3.org/2000/svg" xmlns:xlink="http://www.w3.org/1999/xlink">
 <metadata>
  <rdf:RDF xmlns:cc="http://creativecommons.org/ns#" xmlns:dc="http://purl.org/dc/elements/1.1/" xmlns:rdf="http://www.w3.org/1999/02/22-rdf-syntax-ns#">
   <cc:Work>
    <dc:type rdf:resource="http://purl.org/dc/dcmitype/StillImage"/>
    <dc:date>2020-08-04T16:50:33.438642</dc:date>
    <dc:format>image/svg+xml</dc:format>
    <dc:creator>
     <cc:Agent>
      <dc:title>Matplotlib v3.3.0, https://matplotlib.org/</dc:title>
     </cc:Agent>
    </dc:creator>
   </cc:Work>
  </rdf:RDF>
 </metadata>
 <defs>
  <style type="text/css">*{stroke-linecap:butt;stroke-linejoin:round;}</style>
 </defs>
 <g id="figure_1">
  <g id="patch_1">
   <path d="M 0 345.6  L 460.8 345.6  L 460.8 0  L 0 0  z " style="fill:#ffffff;"/>
  </g>
  <g id="axes_1">
   <g id="line2d_1">
    <path clip-path="url(#p39c24c6926)" d="M 172.952995 189.261747  L 205.110245 204.256919  L 212.607831 188.178294  L 180.450581 173.183122  L 172.952995 189.261747  " style="fill:none;stroke:#808080;stroke-linecap:square;stroke-width:2;"/>
   </g>
   <g id="patch_2">
    <path clip-path="url(#p39c24c6926)" d="M 169.952995 186.261747  L 202.110245 201.256919  L 209.607831 185.178294  L 177.450581 170.183122  z " style="fill:#0000ff;stroke:#000000;stroke-linejoin:miter;stroke-width:2;"/>
   </g>
   <g id="patch_3">
    <path clip-path="url(#p39c24c6926)" d="M 186.03162 193.759333  L 185.350118 199.681014  L 183.649804 198.888144  L 171.044487 225.920333  L 171.028408 225.912835  L 183.633725 198.880646  L 181.93341 198.087777  z " style="stroke:#000000;stroke-linejoin:miter;stroke-width:2;"/>
   </g>
   <g id="patch_4">
    <path clip-path="url(#p39c24c6926)" d="M 130.333628 167.786933  L 315.9936 254.3616  L 316.380153 258.779923  L 130.720182 172.205256  z " style="fill:url(#h34526dbd63);stroke:#000000;stroke-linejoin:miter;stroke-width:2;"/>
   </g>
   <g id="patch_5">
    <path clip-path="url(#p39c24c6926)" d="M 189.780413 221.201621  L 187.895453 215.546741  L 189.771542 215.546741  L 189.771542 185.720021  L 189.789283 185.720021  L 189.789283 215.546741  L 191.665373 215.546741  z " style="stroke:#000000;stroke-linejoin:miter;stroke-width:2;"/>
   </g>
   <g id="line2d_2">
    <path clip-path="url(#p39c24c6926)" d="M 171.036448 225.916584  L 186.03162 193.759333  " style="fill:none;stroke:#000000;stroke-linecap:square;stroke-width:2;"/>
   </g>
   <g id="line2d_3">
    <path clip-path="url(#p39c24c6926)" d="M 186.03162 193.759333  L 216.021964 129.444833  " style="fill:none;stroke:#000000;stroke-dasharray:2,3.3;stroke-dashoffset:0;stroke-width:2;"/>
   </g>
   <g id="line2d_4">
    <path clip-path="url(#p39c24c6926)" d="M 216.021964 129.444833  L 280.336465 159.435177  " style="fill:none;stroke:#000000;stroke-linecap:square;stroke-width:2;"/>
   </g>
   <g id="line2d_5">
    <path clip-path="url(#p39c24c6926)" d="M 276.876725 154.494157  L 280.336465 159.435177  " style="fill:none;stroke:#000000;stroke-linecap:square;stroke-width:2;"/>
   </g>
   <g id="line2d_6">
    <path clip-path="url(#p39c24c6926)" d="M 274.327546 159.960889  L 280.336465 159.435177  " style="fill:none;stroke:#000000;stroke-linecap:square;stroke-width:2;"/>
   </g>
   <g id="line2d_7">
    <path clip-path="url(#p39c24c6926)" d="M 298.2528 254.3616  L 227.2896 254.3616  " style="fill:none;stroke:#000000;stroke-linecap:square;stroke-width:2;"/>
   </g>
   <g id="line2d_8">
    <path clip-path="url(#p39c24c6926)" d="M 189.780413 185.720021  L 189.780413 221.201621  " style="fill:none;stroke:#000000;stroke-linecap:square;stroke-width:2;"/>
   </g>
   <g id="line2d_9">
    <path clip-path="url(#p39c24c6926)" d="M 267.757724 231.868842  L 266.389904 235.071778  L 265.234495 238.357316  L 264.296444 241.711386  L 263.579768 245.119627  L 263.087536 248.567444  L 262.821856 252.040072  L 262.7712 254.3616  L 262.7712 254.3616  " style="fill:none;stroke:#000000;stroke-linecap:square;"/>
   </g>
   <g id="text_1">
    <!-- $N$ -->
    <g transform="translate(161.957052 233.661122)scale(0.14 -0.14)">
     <defs>
      <path d="M 74 57.78125  C 75.09375 62.09375 76.703125 65.09375 84.296875 65.09375  C 84.59375 65.09375 85.796875 65.09375 85.796875 66.859375  C 85.796875 68 84.90625 68 84.5 68  C 82.5 68 77.40625 68 75.40625 68  L 70.59375 68  C 69.203125 68 67.40625 68 66 68  C 65.40625 68 64.203125 68 64.203125 66.09375  C 64.203125 65.09375 65 65.09375 65.703125 65.09375  C 71.703125 65.09375 72.09375 62.796875 72.09375 60.984375  C 72.09375 60.09375 72 59.78125 71.703125 58.390625  L 60.40625 13.28125  L 39 66.390625  C 38.296875 68 38.203125 68 36 68  L 23.796875 68  C 21.796875 68 20.90625 68 20.90625 66.09375  C 20.90625 65.09375 21.59375 65.09375 23.5 65.09375  C 24 65.09375 29.90625 65.09375 29.90625 64.296875  C 29.90625 64.09375 29.703125 63.296875 29.59375 63  L 16.296875 9.921875  C 15.09375 5 12.703125 2.90625 6.09375 2.90625  C 5.59375 2.90625 4.59375 2.90625 4.59375 1.046875  C 4.59375 0 5.59375 0 5.90625 0  C 7.90625 0 13 0 15 0  L 19.796875 0  C 21.203125 0 22.90625 0 24.296875 0  C 25 0 26.09375 0 26.09375 1.90625  C 26.09375 2.8125 25.09375 2.90625 24.703125 2.90625  C 21.40625 2.90625 18.203125 3.5 18.203125 7.09375  C 18.203125 7.890625 18.40625 8.78125 18.59375 9.578125  L 32.09375 63  C 32.703125 62 32.703125 61.8125 33.09375 60.90625  L 56.90625 1.796875  C 57.40625 0.59375 57.59375 0 58.5 0  C 59.5 0 59.59375 0.296875 60 2  z " id="CMMI12-78"/>
     </defs>
     <use transform="scale(0.996264)" xlink:href="#CMMI12-78"/>
    </g>
   </g>
   <g id="text_2">
    <!-- $c$ -->
    <g transform="translate(186.841589 185.720021)scale(0.14 -0.14)">
     <defs>
      <path d="M 39.09375 37.984375  C 37.203125 37.984375 36.296875 37.984375 34.90625 36.796875  C 34.296875 36.296875 33.203125 34.796875 33.203125 33.203125  C 33.203125 31.203125 34.703125 30 36.59375 30  C 39 30 41.703125 31.9375 41.703125 35.8125  C 41.703125 40.4375 37.09375 44 30.203125 44  C 17.09375 44 4 29.734375 4 15.5625  C 4 6.890625 9.40625 -1 19.59375 -1  C 33.203125 -1 41.796875 9.71875 41.796875 11.03125  C 41.796875 11.625 41.203125 12.125 40.796875 12.125  C 40.5 12.125 40.40625 12.03125 39.5 11.140625  C 33.09375 2.53125 23.59375 1 19.796875 1  C 12.90625 1 10.703125 6.96875 10.703125 11.9375  C 10.703125 15.4375 12.40625 25.078125 16 31.859375  C 18.59375 36.53125 24 41.90625 30.296875 41.90625  C 31.59375 41.90625 37.09375 41.90625 39.09375 37.984375  z " id="CMMI12-99"/>
     </defs>
     <use transform="scale(0.996264)" xlink:href="#CMMI12-99"/>
    </g>
   </g>
   <g id="text_3">
    <!-- $x$ -->
    <g transform="translate(282.530228 162.267598)scale(0.14 -0.14)">
     <defs>
      <path d="M 47.40625 40.71875  C 44.203125 40.109375 43 37.71875 43 35.828125  C 43 33.421875 44.90625 32.625 46.296875 32.625  C 49.296875 32.625 51.40625 35.21875 51.40625 37.921875  C 51.40625 42.109375 46.59375 44 42.40625 44  C 36.296875 44 32.90625 38.015625 32 36.125  C 29.703125 44 23.5 44 21.703125 44  C 11.5 44 6.09375 30.9375 6.09375 28.734375  C 6.09375 28.34375 6.5 27.84375 7.203125 27.84375  C 8 27.84375 8.203125 28.4375 8.40625 28.84375  C 11.796875 39.921875 18.5 42.015625 21.40625 42.015625  C 25.90625 42.015625 26.796875 37.8125 26.796875 35.421875  C 26.796875 33.234375 26.203125 30.9375 25 26.140625  L 21.59375 12.46875  C 20.09375 6.484375 17.203125 1 11.90625 1  C 11.40625 1 8.90625 1 6.796875 2.296875  C 10.40625 3 11.203125 5.984375 11.203125 7.1875  C 11.203125 9.1875 9.703125 10.375 7.796875 10.375  C 5.40625 10.375 2.796875 8.28125 2.796875 5.09375  C 2.796875 0.890625 7.5 -1 11.796875 -1  C 16.59375 -1 20 2.796875 22.09375 6.890625  C 23.703125 1 28.703125 -1 32.40625 -1  C 42.59375 -1 48 12.078125 48 14.265625  C 48 14.765625 47.59375 15.171875 47 15.171875  C 46.09375 15.171875 46 14.671875 45.703125 13.875  C 43 5.09375 37.203125 1 32.703125 1  C 29.203125 1 27.296875 3.59375 27.296875 7.6875  C 27.296875 9.875 27.703125 11.46875 29.296875 18.0625  L 32.796875 31.625  C 34.296875 37.625 37.703125 42.015625 42.296875 42.015625  C 42.5 42.015625 45.296875 42.015625 47.40625 40.71875  z " id="CMMI12-120"/>
     </defs>
     <use transform="scale(0.996264)" xlink:href="#CMMI12-120"/>
    </g>
   </g>
   <g id="text_4">
    <!-- $A$ -->
    <g transform="translate(125.214679 167.786933)scale(0.14 -0.14)">
     <defs>
      <path d="M 17 10.796875  C 13.5 4.90625 10.09375 2.90625 5.296875 2.90625  C 4.203125 2.8125 3.40625 2.8125 3.40625 0.90625  C 3.40625 0.375 3.90625 0 4.59375 0  C 6.40625 0 10.90625 0 12.703125 0  C 15.59375 0 18.796875 0 21.59375 0  C 22.203125 0 23.40625 0 23.40625 1.90625  C 23.40625 2.8125 22.59375 2.90625 22 2.90625  C 19.703125 2.90625 17.796875 3.6875 17.796875 6.0625  C 17.796875 7.4375 18.40625 8.53125 19.703125 10.703125  L 27.296875 23.109375  L 52.796875 23.109375  C 52.90625 22.234375 52.90625 21.453125 53 20.5625  C 53.296875 18 54.5 7.734375 54.5 5.875  C 54.5 2.90625 49.40625 2.90625 47.796875 2.90625  C 46.703125 2.90625 45.59375 2.90625 45.59375 1.09375  C 45.59375 0 46.5 0 47.09375 0  C 48.796875 0 50.796875 0 52.5 0  L 58.203125 0  C 64.296875 0 68.703125 0 68.796875 0  C 69.5 0 70.59375 0 70.59375 1.90625  C 70.59375 2.90625 69.703125 2.90625 68.203125 2.90625  C 62.703125 2.90625 62.59375 3.8125 62.296875 6.78125  L 56.203125 68.8125  C 56 70.796875 55.59375 71 54.5 71  C 53.5 71 52.90625 70.796875 52 69.296875  z M 29 26  L 49.09375 59.671875  L 52.5 26  z " id="CMMI12-65"/>
     </defs>
     <use transform="scale(0.996264)" xlink:href="#CMMI12-65"/>
    </g>
   </g>
   <g id="text_5">
    <!-- $B$ -->
    <g transform="translate(310.806045 254.3616)scale(0.14 -0.14)">
     <defs>
      <path d="M 36.59375 61.265625  C 37.5 65 37.90625 65 41.796875 65  L 54.796875 65  C 66.09375 65 66.09375 55.375 66.09375 54.453125  C 66.09375 46.34375 58 36 44.796875 36  L 30.40625 36  z M 53.5 35.546875  C 64.40625 37.53125 74.296875 45.09375 74.296875 54.265625  C 74.296875 62.03125 67.40625 68 56.09375 68  L 24 68  C 22.09375 68 21.203125 68 21.203125 66.03125  C 21.203125 65 22.09375 65 23.59375 65  C 29.703125 65 29.703125 64.25 29.703125 63.1875  C 29.703125 63 29.703125 62.390625 29.296875 60.890625  L 15.796875 7.375  C 14.90625 3.890625 14.703125 2.890625 7.703125 2.890625  C 5.796875 2.890625 4.796875 2.890625 4.796875 1.09375  C 4.796875 0 5.40625 0 7.40625 0  L 41.703125 0  C 57 0 68.796875 11.546875 68.796875 21.609375  C 68.796875 29.78125 61.59375 34.75 53.5 35.546875  z M 39.296875 2.890625  L 25.796875 2.890625  C 24.40625 2.890625 24.203125 2.890625 23.59375 3  C 22.5 3.09375 22.40625 3.296875 22.40625 4.078125  C 22.40625 4.765625 22.59375 5.359375 22.796875 6.234375  L 29.796875 34  L 48.59375 34  C 60.40625 34 60.40625 23.171875 60.40625 22.390625  C 60.40625 12.9375 51.703125 2.890625 39.296875 2.890625  z " id="CMMI12-66"/>
     </defs>
     <use transform="scale(0.996264)" xlink:href="#CMMI12-66"/>
    </g>
   </g>
   <g id="text_6">
    <!-- $Mg$ -->
    <g transform="translate(179.176052 229.746773)scale(0.14 -0.14)">
     <defs>
      <path d="M 90.796875 60.71875  C 91.703125 64.109375 91.90625 65.109375 99 65.109375  C 100.90625 65.109375 101.796875 65.109375 101.796875 67  C 101.796875 68 101.09375 68 99.203125 68  L 87.203125 68  C 84.703125 68 84.59375 67.90625 83.5 66.296875  L 47 8.78125  L 39.5 65.796875  C 39.203125 68 39.09375 68 36.5 68  L 24.09375 68  C 22.203125 68 21.296875 68 21.296875 66.109375  C 21.296875 65.109375 22.203125 65.109375 23.703125 65.109375  C 29.796875 65.109375 29.796875 64.3125 29.796875 63.21875  C 29.796875 63.03125 29.796875 62.421875 29.40625 60.921875  L 16.59375 9.90625  C 15.40625 5.109375 13.09375 2.90625 6.40625 2.90625  C 6.09375 2.90625 4.90625 2.90625 4.90625 1.140625  C 4.90625 0 5.796875 0 6.203125 0  C 8.203125 0 13.296875 0 15.296875 0  L 20.09375 0  C 21.5 0 23.203125 0 24.59375 0  C 25.296875 0 26.40625 0 26.40625 1.90625  C 26.40625 2.8125 25.40625 2.90625 25 2.90625  C 21.703125 2.90625 18.5 3.5 18.5 7.09375  C 18.5 8.09375 18.5 8.1875 18.90625 9.578125  L 32.703125 64.515625  L 32.796875 64.515625  L 41.09375 2.6875  C 41.40625 0.296875 41.5 0 42.40625 0  C 43.5 0 44 0.796875 44.5 1.703125  L 84.703125 65.015625  L 84.796875 65.015625  L 70.296875 7.390625  C 69.40625 3.90625 69.203125 2.90625 62.203125 2.90625  C 60.296875 2.90625 59.296875 2.90625 59.296875 1.09375  C 59.296875 0 60.203125 0 60.796875 0  C 62.5 0 64.5 0 66.203125 0  L 78 0  C 79.703125 0 81.796875 0 83.5 0  C 84.296875 0 85.40625 0 85.40625 1.90625  C 85.40625 2.90625 84.5 2.90625 83 2.90625  C 76.90625 2.90625 76.90625 3.65625 76.90625 4.59375  C 76.90625 4.703125 76.90625 5.390625 77.09375 6.1875  z " id="CMMI12-77"/>
      <path d="M 33.796875 12.671875  C 33.40625 11.078125 33.203125 10.671875 31.90625 9.1875  C 27.796875 3.890625 23.59375 2 20.5 2  C 17.203125 2 14.09375 4.59375 14.09375 11.46875  C 14.09375 16.765625 17.09375 27.9375 19.296875 32.4375  C 22.203125 38.015625 26.703125 42.015625 30.90625 42.015625  C 37.5 42.015625 38.796875 33.828125 38.796875 33.234375  L 38.5 31.828125  z M 40 37.421875  C 38.703125 40.3125 35.90625 44 30.90625 44  C 20 44 7.59375 30.328125 7.59375 15.46875  C 7.59375 5.09375 13.90625 0 20.296875 0  C 25.59375 0 30.296875 4.1875 32.09375 6.1875  L 29.90625 -2.671875  C 28.5 -8.0625 27.90625 -10.53125 24.296875 -13.96875  C 20.203125 -18 16.40625 -18 14.203125 -18  C 11.203125 -18 8.703125 -17.796875 6.203125 -17.015625  C 9.40625 -16.140625 10.203125 -13.40625 10.203125 -12.328125  C 10.203125 -10.765625 9 -9.1875 6.796875 -9.1875  C 4.40625 -9.1875 1.796875 -11.15625 1.796875 -14.40625  C 1.796875 -18.4375 5.90625 -20 14.40625 -20  C 27.296875 -20 34 -11.765625 35.296875 -6.40625  L 46.40625 38.046875  C 46.703125 39.234375 46.703125 39.4375 46.703125 39.625  C 46.703125 41.015625 45.59375 42.109375 44.09375 42.109375  C 41.703125 42.109375 40.296875 40.109375 40 37.421875  z " id="CMMI12-103"/>
     </defs>
     <use transform="scale(0.996264)" xlink:href="#CMMI12-77"/>
     <use transform="translate(104.780079 0)scale(0.996264)" xlink:href="#CMMI12-103"/>
    </g>
   </g>
   <g id="text_7">
    <!-- $\theta$ -->
    <g transform="translate(255.033996 241.754218)scale(0.18 -0.18)">
     <defs>
      <path d="M 44.296875 50  C 44.296875 60.15625 41.09375 70 32.90625 70  C 18.90625 70 4 40.859375 4 19  C 4 14.421875 5 -1 15.5 -1  C 29.09375 -1 44.296875 27.4375 44.296875 50  z M 14 36  C 15.5 41.859375 17.59375 50.21875 21.59375 57.265625  C 24.90625 63.234375 28.40625 68 32.796875 68  C 36.09375 68 38.296875 65.21875 38.296875 55.6875  C 38.296875 52.09375 38 47.140625 35.09375 36  z M 34.40625 33.015625  C 31.90625 23.28125 29.796875 17 26.203125 10.734375  C 23.296875 5.671875 19.796875 1 15.59375 1  C 12.5 1 10 3.390625 10 13.21875  C 10 19.6875 11.59375 26.453125 13.203125 33.015625  z " id="CMMI12-18"/>
     </defs>
     <use transform="scale(0.996264)" xlink:href="#CMMI12-18"/>
    </g>
   </g>
  </g>
 </g>
 <defs>
  <clipPath id="p39c24c6926">
   <rect height="266.112" width="301.5936" x="85.3632" y="41.472"/>
  </clipPath>
 </defs>
 <defs>
  <pattern height="72" id="h34526dbd63" patternUnits="userSpaceOnUse" width="72" x="0" y="0">
   <rect fill="#ffffff" height="73" width="73" x="0" y="0"/>
   <path d="M -36 36  L 36 -36  M -24 48  L 48 -24  M -12 60  L 60 -12  M 0 72  L 72 0  M 12 84  L 84 12  M 24 96  L 96 24  M 36 108  L 108 36  " style="fill:#000000;stroke:#000000;stroke-linecap:butt;stroke-linejoin:miter;stroke-width:1.0;"/>
  </pattern>
 </defs>
</svg>